<svg width="88" height="34" viewBox="0 0 88 34" fill="none" xmlns="http://www.w3.org/2000/svg">
<path d="M87.5195 0C87.5195 0.113577 87.5195 0.229925 87.5195 0.343502V20.8566H84.8919V18.5989C84.7546 18.7208 84.6706 18.7873 84.5921 18.862C83.2378 20.1761 81.4445 20.9554 79.5497 21.0532C77.8969 21.1724 76.2806 21.0145 74.7706 20.297C72.2494 19.0975 70.8011 17.0947 70.437 14.3467C70.2072 12.607 70.3725 10.9061 71.2101 9.33545C72.4819 6.95865 74.5381 5.61235 77.1686 5.13311C79.1099 4.7813 81.0176 4.9669 82.7713 5.96416C83.3653 6.35171 83.9273 6.78522 84.4521 7.2606C84.5044 7.3168 84.5496 7.37913 84.5865 7.4462L84.6818 7.39911V0H87.5195ZM79.0651 18.6294C82.4127 18.6294 84.7742 16.3218 84.777 13.0392C84.7798 9.75652 82.4379 7.41019 79.0987 7.41019C75.7595 7.41019 73.3812 9.70389 73.3728 12.9865C73.3644 16.3135 75.7007 18.6294 79.0651 18.6294Z" fill="white"/>
<path d="M16.8557 18.4493V20.2416C15.8039 20.6109 14.6612 20.6439 13.5894 20.3358C13.1939 20.2429 12.8378 20.0296 12.5714 19.7259C12.305 19.4222 12.1418 19.0435 12.1047 18.6432C12.1047 18.574 12.0795 18.5047 12.0627 18.4382C12.0531 18.419 12.0409 18.4013 12.0262 18.3856C11.5668 18.718 11.127 19.0781 10.6508 19.3801C9.28246 20.2122 7.7105 20.6595 6.10419 20.6738C4.75394 20.7236 3.44851 20.5602 2.24954 19.8953C0.820855 19.1058 0.0252731 17.9174 0.0784986 16.2636C0.0773755 15.5131 0.28984 14.7773 0.691592 14.1405C1.09334 13.5037 1.66818 12.9915 2.35039 12.6624C3.4177 12.0918 4.59147 11.8896 5.77644 11.7704C7.38721 11.6098 9.00078 11.4519 10.6116 11.2774C11.5892 11.1693 12.0935 10.3992 11.9422 9.29115C11.904 8.96149 11.781 8.64702 11.5848 8.37784C11.3886 8.10866 11.1258 7.89376 10.8217 7.75371C9.83838 7.24677 8.76827 7.17197 7.68975 7.19967C7.13156 7.21287 6.57606 7.28061 6.03135 7.4019C5.46034 7.51093 4.93781 7.793 4.53623 8.20897C4.13465 8.62494 3.87394 9.15419 3.79028 9.72329C3.74266 9.97538 3.64181 10.0336 3.4009 10.0308C2.59971 10.0308 1.79853 10.0308 0.966528 10.0308C1.02536 8.39362 1.64445 7.11103 3.03952 6.25228C4.05201 5.6713 5.18365 5.3229 6.35071 5.23286C8.14655 4.98669 9.97474 5.11885 11.7153 5.62068C12.5991 5.85504 13.4024 6.32115 14.0404 6.96975C14.6079 7.57921 14.9141 8.38258 14.8948 9.21081C14.8948 11.9699 14.8948 14.7281 14.8948 17.4853C14.8948 18.3163 15.217 18.6128 16.0546 18.5463C16.2955 18.5269 16.5504 18.4909 16.8557 18.4493ZM11.8722 12.8397C11.4997 12.9679 11.1199 13.0742 10.7348 13.1583C9.41258 13.3577 8.08474 13.5323 6.75691 13.7123C5.89553 13.7788 5.05403 14.0023 4.27491 14.3716C3.98667 14.5005 3.73609 14.6994 3.54653 14.9498C3.35697 15.2002 3.23459 15.494 3.1908 15.8038C3.02832 17.1224 3.68103 18.1529 4.99766 18.4382C5.98232 18.6718 7.00733 18.6846 7.99762 18.4756C8.9879 18.2666 9.91836 17.8412 10.7208 17.2304C11.0453 17.0198 11.3168 16.7386 11.5144 16.4082C11.712 16.0779 11.8306 15.7072 11.861 15.3246C11.903 14.4963 11.8722 13.6652 11.8722 12.8397Z" fill="white"/>
<path d="M61.8537 13.1223C61.8537 17.779 58.282 21.2722 53.5337 21.2722C48.7854 21.2722 45.2558 17.7707 45.2305 13.0974C45.2053 8.42413 48.8135 4.89771 53.5869 4.90602C58.3604 4.91433 61.8537 8.37703 61.8537 13.1223ZM48.2056 13.1002C48.2889 13.7968 48.419 14.4872 48.5949 15.1667C49.9956 19.4355 54.8223 19.671 57.1054 17.477C59.0664 15.5905 59.4193 11.9007 57.7946 9.55158C57.3679 8.93425 56.8087 8.41766 56.1569 8.03868C55.5051 7.65969 54.7767 7.42765 54.0237 7.35912C53.2708 7.29059 52.5118 7.38726 51.801 7.64222C51.0902 7.89719 50.445 8.30416 49.9116 8.83411C48.7294 10.0114 48.2812 11.4658 48.2056 13.1002Z" fill="white"/>
<path d="M30.5458 6.89216L28.7921 8.84789C28.1982 8.47392 27.6716 8.00299 27.0441 7.76476C23.4219 6.37967 20.0687 8.55702 19.6569 12.197C19.4416 13.6355 19.7187 15.104 20.4441 16.3689C22.2986 19.4909 26.5903 19.3163 28.3775 17.5517C28.526 17.4049 28.6773 17.2747 28.8594 17.0891L30.7166 19.1474C30.2432 19.4853 29.8006 19.8316 29.316 20.1335C26.5146 21.9092 20.9344 21.9563 18.1106 18.0615C16.9518 16.4474 16.4079 14.4798 16.5755 12.5073C16.6131 11.3667 16.9021 10.2481 17.4222 9.22941C17.9424 8.21075 18.6811 7.31666 19.5869 6.6096C21.2257 5.30208 23.1474 4.85608 25.2148 4.90872C27.0021 4.90471 28.7398 5.48952 30.1536 6.57082C30.2824 6.67054 30.3945 6.77027 30.5458 6.89216Z" fill="white"/>
<path d="M43.1519 17.0393L45.026 19.1169C44.4474 19.6901 43.7664 20.1522 43.0174 20.4799C39.7931 21.7874 36.6836 21.6378 33.8682 19.4937C31.9941 18.067 31.0837 16.0725 30.9324 13.7456C30.7951 11.6375 31.2546 9.68453 32.574 7.98642C34.2128 5.87833 36.4371 4.93924 39.0815 4.906C41.1153 4.87276 42.9838 5.36031 44.5918 6.64843L44.7795 6.80356C44.8047 6.82572 44.8271 6.85342 44.8747 6.90329L43.1155 8.86733C42.5832 8.50998 42.1182 8.08061 41.5663 7.8396C38.5409 6.52378 34.9159 7.82575 34.0979 11.5959C33.7169 13.3661 33.9186 15.0808 34.9607 16.6404C36.8825 19.5103 41.303 19.3524 43.0398 17.2194C43.0803 17.1613 43.1176 17.1012 43.1519 17.0393Z" fill="white"/>
<path d="M66.1957 20.8594H63.3719V5.31874H66.0949V7.25785C66.3974 6.91435 66.6551 6.59024 66.9353 6.30215C68.0838 5.1553 69.5153 4.91707 71.0644 5.06111C71.1087 5.07337 71.1492 5.09621 71.1824 5.12761C71.2157 5.15901 71.2406 5.19801 71.2549 5.24117C71.2549 6.11654 71.2549 6.99191 71.2549 7.79803C70.5293 7.74968 69.8011 7.74968 69.0755 7.79803C67.63 7.97532 66.6719 8.9338 66.3694 10.4463C66.2485 11.069 66.1875 11.7015 66.1873 12.3356C66.1677 15.0365 66.1873 17.7374 66.1873 20.4355L66.1957 20.8594Z" fill="white"/>
<path d="M3.14597 33.7268H2.02543L6.10352e-05 25.8456C0.35303 25.8456 0.672383 25.8456 0.988935 25.8456C1.05056 25.8456 1.13741 25.9731 1.15702 26.0534C1.62764 28.0498 2.09453 30.048 2.55769 32.048C2.5829 32.1589 2.60531 32.2697 2.63893 32.4192C2.96949 31.1505 3.28884 29.9261 3.611 28.6989C3.84071 27.8291 4.08162 26.962 4.30293 26.0922C4.35055 25.9066 4.41778 25.8152 4.62788 25.829C4.90802 25.8484 5.18815 25.829 5.49069 25.829C6.00614 28.0147 6.51599 30.1782 7.03143 32.35C7.19671 31.6713 7.35639 30.9871 7.53288 30.3056C7.89985 28.8901 8.28084 27.4745 8.65341 26.0562C8.69823 25.8761 8.77107 25.8069 8.95876 25.8152C9.22489 25.8152 9.49101 25.8152 9.79916 25.8152C9.04 28.4662 8.28924 31.0785 7.53568 33.7046H6.41514L4.89121 27.3332L3.14597 33.7268Z" fill="white"/>
<path d="M20.2173 33.7101H19.2032V28.0673H20.0604L20.1276 28.9316C20.5954 28.2529 21.1529 27.9011 21.9121 27.9011C22.6712 27.9011 23.2147 28.3028 23.5677 29.0092C23.8517 28.5285 24.3027 28.1662 24.8367 27.9897C26.1085 27.6241 27.2402 28.3471 27.3383 29.71C27.4307 31.0286 27.3579 32.3583 27.3579 33.7074H26.3802C26.3802 32.735 26.3802 31.7682 26.3802 30.8042C26.3808 30.4936 26.3574 30.1833 26.3102 29.8762C26.1981 29.1865 25.7807 28.7931 25.1728 28.7682C24.8733 28.7723 24.5834 28.8738 24.3479 29.057C24.1125 29.2403 23.9446 29.495 23.8702 29.782C23.8184 29.9952 23.793 30.2138 23.7946 30.433C23.7946 31.5162 23.7946 32.5993 23.7946 33.7101H22.7777C22.7777 33.5799 22.7777 33.4331 22.7777 33.3085C22.7777 32.2004 22.7777 31.0923 22.7385 29.9843C22.7491 29.7382 22.6812 29.4952 22.5445 29.2894C22.4077 29.0836 22.2091 28.9255 21.9765 28.8374C21.7621 28.7548 21.5272 28.7394 21.3036 28.7935C21.0801 28.8475 20.8788 28.9683 20.7271 29.1394C20.5597 29.3014 20.4283 29.4962 20.3415 29.7113C20.2546 29.9265 20.2142 30.1572 20.2229 30.3887V33.7129L20.2173 33.7101Z" fill="white"/>
<path d="M58.0355 25.4163H59.0776V28.9178C59.2818 28.6029 59.5634 28.3443 59.896 28.166C60.2286 27.9878 60.6014 27.8957 60.9797 27.8983C61.4448 27.8647 61.9086 27.9788 62.3036 28.224C62.6986 28.4691 63.0042 28.8325 63.1759 29.2612C63.4268 29.7916 63.5457 30.3735 63.5228 30.9585C63.4999 31.5436 63.3358 32.1147 63.0443 32.6242C62.7679 33.1126 62.3299 33.4921 61.804 33.6989C61.2781 33.9058 60.6962 33.9273 60.1561 33.76C59.6593 33.5946 59.2383 33.2597 58.9683 32.8154L58.9095 33.688H58.0355V25.4163ZM59.0664 30.915H59.086C59.086 31.1006 59.086 31.2835 59.086 31.4691C59.099 31.8414 59.2412 32.1979 59.4885 32.4789C59.7359 32.7598 60.0735 32.9481 60.4446 33.0121C60.8227 33.0755 61.2112 33.0028 61.5397 32.8071C61.8681 32.6114 62.1147 32.3057 62.2347 31.9455C62.4866 31.3186 62.5123 30.625 62.3075 29.9815C62.0414 29.1311 61.4223 28.6795 60.6071 28.7294C60.2332 28.7688 59.8834 28.931 59.6138 29.1901C59.3441 29.4493 59.1701 29.7903 59.1196 30.1588C59.0892 30.4135 59.0733 30.6697 59.072 30.9261L59.0664 30.915Z" fill="white"/>
<path d="M37.1095 30.3832C37.9499 31.4912 38.7623 32.5716 39.6307 33.724C39.1825 33.724 38.7903 33.724 38.4065 33.724C38.3225 33.724 38.2328 33.591 38.1684 33.5024C37.5717 32.6907 36.9806 31.8763 36.3867 31.0591C36.1931 31.1775 36.0377 31.348 35.9384 31.5506C35.8392 31.7532 35.8004 31.9795 35.8265 32.2032C35.8769 32.6935 35.8265 33.1921 35.8265 33.7129H34.8068V25.444H35.8181V30.6269C36.5044 29.8236 37.1459 29.0978 37.7594 28.3499C37.8318 28.2409 37.9338 28.1543 38.0537 28.0999C38.1736 28.0455 38.3065 28.0256 38.4373 28.0424C38.6978 28.0673 38.9612 28.0424 39.3169 28.0424L37.1095 30.3832Z" fill="white"/>
<path d="M11.4211 31.084C11.3987 32.2696 12.1382 33.0453 13.2756 33.0647C13.5565 33.0728 13.8377 33.057 14.116 33.0176C14.3882 32.9617 14.6575 32.8923 14.9228 32.8098C14.9391 32.8265 14.9532 32.8451 14.9648 32.8652C15.2029 33.5384 15.1945 33.6132 14.4857 33.7157C13.8467 33.8253 13.1956 33.8495 12.55 33.7877C11.4491 33.6547 10.7095 32.8957 10.4854 31.8153C10.3042 31.0341 10.3757 30.2162 10.6899 29.4773C10.9114 28.9311 11.3183 28.478 11.8407 28.196C12.3631 27.914 12.9684 27.8205 13.5529 27.9316C14.6594 28.1338 15.4046 29.0784 15.4578 30.3444C15.4886 31.084 15.4886 31.084 14.7323 31.084H11.4211ZM14.4129 30.3195C14.4129 29.2613 13.8666 28.6574 12.9786 28.6574C12.5578 28.6872 12.165 28.8769 11.8825 29.1867C11.6 29.4966 11.4497 29.9025 11.4631 30.3195H14.4129Z" fill="white"/>
<path d="M41.0564 31.084C41.0246 31.3339 41.0475 31.5875 41.1237 31.8278C41.1999 32.0681 41.3275 32.2893 41.4979 32.4765C41.6683 32.6636 41.8774 32.8123 42.1111 32.9124C42.3448 33.0124 42.5975 33.0615 42.8521 33.0564C43.4339 33.0282 44.0138 32.9681 44.5889 32.8763L44.7626 33.5328C44.5449 33.6203 44.3187 33.6853 44.0875 33.7268C43.4562 33.8101 42.8181 33.8314 42.1826 33.7905C41.695 33.7424 41.2355 33.5423 40.8705 33.2192C40.5054 32.896 40.2537 32.4665 40.1516 31.9926C39.9129 31.1686 39.9673 30.2886 40.3057 29.4995C40.5237 28.9513 40.9286 28.4956 41.4503 28.2114C41.9721 27.9271 42.5779 27.832 43.163 27.9427C44.2696 28.1366 45.0175 29.0729 45.0791 30.3444C45.1128 31.0951 45.1128 31.0951 44.3676 31.0951H41.0564V31.084ZM41.0564 30.3056H44.0286C44.0118 29.289 43.516 28.6906 42.6868 28.6629C41.8268 28.6324 41.1489 29.3111 41.0676 30.3056H41.0564Z" fill="white"/>
<path d="M65.5038 31.084C65.4707 31.3331 65.4924 31.5864 65.5674 31.8265C65.6423 32.0666 65.7689 32.2878 65.9383 32.4751C66.1077 32.6624 66.3161 32.8112 66.5491 32.9116C66.7821 33.0119 67.0342 33.0612 67.2883 33.0563C67.8721 33.0293 68.4538 32.9691 69.0307 32.8762L69.2016 33.5383C68.081 33.9012 67.0137 34.0563 65.9324 33.591C65.6193 33.4595 65.3401 33.26 65.1156 33.0073C64.891 32.7545 64.7269 32.4551 64.6354 32.1311C64.3519 31.2785 64.3867 30.3537 64.7334 29.5243C64.9447 28.9673 65.3479 28.5018 65.8722 28.2099C66.3964 27.918 67.008 27.8185 67.5992 27.9287C68.7001 28.1199 69.4341 29.0368 69.5181 30.2917C69.5686 31.084 69.5685 31.084 68.7786 31.084H65.5038ZM68.476 30.3138C68.49 29.3138 67.9718 28.685 67.1258 28.6517C66.9094 28.655 66.6958 28.7007 66.4974 28.7862C66.299 28.8718 66.1198 28.9955 65.9702 29.1502C65.8206 29.3048 65.7035 29.4873 65.6259 29.6871C65.5482 29.8869 65.5115 30.0999 65.5178 30.3138H68.476Z" fill="white"/>
<path d="M79.2921 31.084C79.2221 32.2087 79.9784 33.0508 81.0933 33.0563C81.6799 33.0276 82.2645 32.9666 82.8442 32.8735C82.7882 32.8237 82.8134 32.8347 82.819 32.8541C83.0571 33.5605 83.0627 33.6104 82.3231 33.7212C81.6952 33.8298 81.0553 33.8531 80.421 33.7904C79.3005 33.6519 78.5665 32.8984 78.3396 31.7904C78.1654 31.0197 78.2369 30.2145 78.5441 29.4856C78.7636 28.938 79.1693 28.4832 79.6914 28.1996C80.2134 27.9159 80.8192 27.8211 81.4043 27.9315C82.5248 28.1254 83.2588 29.0645 83.3176 30.3333C83.3512 31.084 83.3512 31.084 82.6033 31.084H79.2921ZM79.2921 30.3056H82.2643C82.2475 29.2889 81.7517 28.6906 80.9253 28.6629C80.0681 28.6324 79.3901 29.3111 79.3061 30.3056H79.2921Z" fill="white"/>
<path d="M29.3413 29.1006L29.092 28.397C30.106 27.8845 31.1341 27.6684 32.1734 28.1698C32.9326 28.5327 33.1399 29.2585 33.1595 30.0286C33.1847 30.9622 33.1595 31.8957 33.1791 32.8293C33.1791 33.1063 33.2211 33.3999 33.2435 33.7074H32.3079L32.2042 33.0592C31.9857 33.3182 31.7112 33.5253 31.4009 33.6653C31.0906 33.8053 30.7524 33.8746 30.4114 33.8681C30.0596 33.8867 29.711 33.7935 29.4166 33.6021C29.1222 33.4107 28.8975 33.1311 28.7754 32.8043C28.6463 32.4491 28.6334 32.0627 28.7385 31.6999C28.8435 31.337 29.0613 31.016 29.3609 30.7821C30.0416 30.2668 30.8456 30.1533 31.6692 30.1145C31.8065 30.1145 31.9493 30.1145 32.0754 30.1145C32.2014 29.2834 31.7672 28.7294 30.9773 28.6851C30.4024 28.6608 29.8331 28.8054 29.3413 29.1006ZM32.1286 30.8209C31.4815 30.8209 30.8456 30.843 30.2713 31.181C30.074 31.2963 29.9189 31.4705 29.8283 31.6787C29.7376 31.8868 29.7162 32.118 29.7671 32.3389C29.7993 32.5358 29.8969 32.7166 30.0445 32.8525C30.1921 32.9884 30.3813 33.0719 30.5823 33.0897C30.934 33.1326 31.2891 33.0422 31.576 32.8366C31.8629 32.631 32.0604 32.3255 32.1286 31.9816C32.1537 31.5951 32.1537 31.2074 32.1286 30.8209Z" fill="white"/>
<path d="M54.2536 32.9622C54.3853 33.8209 54.4329 33.8265 53.5589 33.8569C52.4216 33.8985 51.8781 33.3666 51.8781 32.2281C51.8781 31.2364 51.8781 30.2419 51.8781 29.2502V28.8402H50.9985V28.0618H51.8725V26.6767L52.881 26.3997V28.0202H54.3881V28.8097H52.9622C52.9361 28.8701 52.9173 28.9333 52.9062 28.9981C52.9062 30.0147 52.9062 31.0286 52.9286 32.0453C52.9566 32.8763 53.2339 33.0647 54.0715 32.9622H54.2536Z" fill="white"/>
<path d="M73.5577 28.8374H72.157C72.1262 28.9011 72.0982 28.9316 72.0982 28.962C72.0982 30.0562 72.0982 31.1532 72.1234 32.2474C72.1402 32.8015 72.4932 33.0785 73.0591 33.0065L73.4765 32.9594C73.5024 33.168 73.5136 33.3781 73.5101 33.5882C73.4994 33.6329 73.4777 33.6742 73.4469 33.7086C73.4161 33.7429 73.3772 33.7691 73.3336 33.7849C72.9437 33.8378 72.5492 33.848 72.157 33.8154C71.8992 33.7786 71.6607 33.6593 71.478 33.4757C71.2954 33.292 71.1786 33.0542 71.1457 32.7987C71.0991 32.5614 71.0747 32.3202 71.0729 32.0785C71.0729 31.0175 71.0729 29.9593 71.0729 28.8485H70.1933V28.0534H71.0617V26.6877L72.0786 26.4107V28.0313H73.5689L73.5577 28.8374Z" fill="white"/>
<path d="M74.1012 28.0451H74.9696V26.6905L75.9865 26.4135V28.0285H77.4768V28.8319H76.0762C76.0498 28.8805 76.0309 28.9328 76.0201 28.987C76.0201 30.0147 76.0201 31.0425 76.0425 32.0674C76.0706 32.8735 76.3535 33.0785 77.1631 32.9788C77.2303 32.9788 77.3003 32.9788 77.3592 32.9649C77.418 32.9511 77.404 33.0148 77.4068 33.0314C77.4824 33.8015 77.6001 33.8182 76.7177 33.8625C75.5579 33.9123 75.0172 33.3777 75.006 32.2253C75.006 31.1311 75.006 30.0341 75.006 28.9371C75.006 28.9371 75.006 28.9177 74.964 28.8568H74.1236L74.1012 28.0451Z" fill="white"/>
<path d="M85.6286 33.7267H84.5949V28.0701H85.4633C85.4801 28.3803 85.4941 28.6933 85.511 29.0922C85.6342 28.8928 85.7014 28.7626 85.7911 28.6463C85.9376 28.4168 86.1414 28.2286 86.3827 28.0995C86.6241 27.9705 86.895 27.905 87.1693 27.9094C87.3598 27.9094 87.4495 27.9759 87.4495 28.1864C87.4495 28.3969 87.4495 28.6435 87.4495 28.8568C87.4075 28.8845 87.3878 28.9094 87.371 28.9066C86.3121 28.7875 85.6902 29.5438 85.6482 30.6602C85.623 31.5494 85.6482 32.4358 85.6482 33.3251L85.6286 33.7267Z" fill="white"/>
<path d="M49.8891 33.7267H48.889V28.0728H49.8891V33.7267Z" fill="white"/>
<path d="M50.0516 26.4965C50.0475 26.6663 49.9754 26.8274 49.8512 26.9446C49.7269 27.0617 49.5607 27.1253 49.3891 27.1212C49.2175 27.1172 49.0545 27.0459 48.936 26.923C48.8176 26.8001 48.7533 26.6358 48.7574 26.4661C48.7531 26.3795 48.7675 26.293 48.7999 26.2124C48.8322 26.1318 48.8816 26.059 48.9448 25.9988C49.008 25.9387 49.0834 25.8927 49.1661 25.8639C49.2488 25.835 49.3368 25.8241 49.4241 25.8317C49.5116 25.8275 49.5989 25.8421 49.68 25.8747C49.7611 25.9073 49.8341 25.9569 49.8938 26.0202C49.9535 26.0835 49.9986 26.1589 50.0259 26.2412C50.0531 26.3234 50.0619 26.4106 50.0516 26.4965Z" fill="white"/>
</svg>
