<svg width="122" height="34" viewBox="0 0 122 34" fill="none" xmlns="http://www.w3.org/2000/svg">
<path fill-rule="evenodd" clip-rule="evenodd" d="M90.0125 30.155C89.4518 30.155 89.1105 30.2759 88.7935 30.687L89.2568 31.1465C89.4518 30.8805 89.6225 30.7838 90.0125 30.7838C90.5489 30.7838 90.7683 31.0256 90.7683 31.485V31.751H89.8663C89.0861 31.751 88.696 32.2105 88.696 32.8392C88.696 33.1536 88.7935 33.4438 88.9642 33.6373C89.1836 33.8791 89.4518 33.9758 89.8906 33.9758C90.3295 33.9758 90.5489 33.8549 90.7927 33.5889V33.9274H91.4754V31.4367C91.4266 30.5903 90.939 30.155 90.0125 30.155ZM90.7196 32.5974C90.7196 32.8634 90.6708 33.0327 90.5733 33.1536C90.4026 33.3471 90.2076 33.3712 89.9394 33.3712C89.5006 33.3712 89.3055 33.1778 89.3055 32.8392C89.3055 32.5007 89.5249 32.3072 89.915 32.3072H90.7196V32.5974Z" fill="white"/>
<path fill-rule="evenodd" clip-rule="evenodd" d="M85.8679 30.155C84.9902 30.155 84.4295 30.8563 84.4295 32.0654C84.4295 33.4922 85.1121 34 85.9654 34C86.5749 34 86.8919 33.8065 87.2332 33.4196L86.7944 32.9602C86.5506 33.2262 86.3555 33.3471 85.9654 33.3471C85.4047 33.3471 85.0877 32.936 85.0877 32.2831H87.3064V31.9445C87.3307 30.8805 86.7944 30.155 85.8679 30.155ZM85.1121 31.7752C85.1121 31.5334 85.1365 31.4367 85.2096 31.2674C85.3072 30.9772 85.5753 30.7838 85.8923 30.7838C86.2092 30.7838 86.453 30.9772 86.5749 31.2674C86.6481 31.4367 86.6725 31.5576 86.6725 31.7752H85.1121Z" fill="white"/>
<path fill-rule="evenodd" clip-rule="evenodd" d="M119.489 30.155C118.611 30.155 118.05 30.8563 118.05 32.0654C118.05 33.4922 118.733 34 119.586 34C120.196 34 120.513 33.8065 120.854 33.4196L120.415 32.9602C120.171 33.2262 119.976 33.3471 119.586 33.3471C119.025 33.3471 118.708 32.936 118.708 32.2831H120.927V31.9445C120.951 30.8805 120.415 30.155 119.489 30.155ZM118.733 31.7752C118.733 31.5334 118.757 31.4367 118.83 31.2674C118.928 30.9772 119.196 30.7838 119.513 30.7838C119.83 30.7838 120.074 30.9772 120.196 31.2674C120.269 31.4367 120.293 31.5576 120.293 31.7752H118.733Z" fill="white"/>
<path fill-rule="evenodd" clip-rule="evenodd" d="M111.662 30.155C111.102 30.155 110.76 30.2759 110.443 30.687L110.882 31.1465C111.077 30.8805 111.248 30.7838 111.638 30.7838C112.174 30.7838 112.394 31.0256 112.394 31.485V31.751H111.492C110.712 31.751 110.321 32.2105 110.321 32.8392C110.321 33.1536 110.419 33.4438 110.59 33.6373C110.809 33.8791 111.077 33.9758 111.516 33.9758C111.931 33.9758 112.174 33.8549 112.418 33.5889V33.9274H113.101V31.4367C113.076 30.5903 112.613 30.155 111.662 30.155ZM112.394 32.5974C112.394 32.8634 112.345 33.0327 112.248 33.1536C112.077 33.3471 111.882 33.3712 111.614 33.3712C111.175 33.3712 110.98 33.1778 110.98 32.8392C110.98 32.5007 111.199 32.3072 111.589 32.3072H112.394V32.5974Z" fill="white"/>
<path fill-rule="evenodd" clip-rule="evenodd" d="M116.392 30.155C116.002 30.155 115.661 30.3485 115.49 30.6145V30.2034H114.807V33.9758H115.49V31.6785C115.49 31.1707 115.807 30.8321 116.173 30.8321C116.417 30.8321 116.538 30.9047 116.685 31.0739L117.197 30.4936C116.977 30.2518 116.709 30.155 116.392 30.155Z" fill="white"/>
<path fill-rule="evenodd" clip-rule="evenodd" d="M82.0402 30.9289H80.0897V28.6799H79.3583V33.9516H80.0897V31.6543H82.0402V33.9516H82.7472V28.6799H82.0402V30.9289Z" fill="white"/>
<path fill-rule="evenodd" clip-rule="evenodd" d="M96.6928 29.1152H96.0101V30.2518H95.6201V30.8322H96.0101V32.9118C96.0101 33.4438 96.3027 33.9516 96.9366 33.9516H97.3511V33.2987H97.0585C96.8147 33.2987 96.6928 33.1295 96.6928 32.8635V30.8322H97.3511V30.2518H96.6928V29.1152Z" fill="white"/>
<path fill-rule="evenodd" clip-rule="evenodd" d="M100.447 30.155C100.106 30.155 99.7891 30.3001 99.5697 30.5661V28.6558H98.887V33.9275H99.5697V31.6302C99.5697 31.074 99.8866 30.808 100.252 30.808C100.642 30.808 100.935 31.0498 100.935 31.6302V33.9275H101.618V31.5092C101.642 30.7112 101.228 30.155 100.447 30.155Z" fill="white"/>
<path fill-rule="evenodd" clip-rule="evenodd" d="M107.298 29.3328C107.835 29.3328 108.152 29.6956 108.273 30.2276H109.005C108.834 29.1635 108.176 28.6074 107.298 28.6074C106.811 28.6074 106.372 28.8008 106.03 29.1635C105.567 29.6714 105.567 30.2759 105.567 31.2916C105.567 32.3072 105.567 32.8876 106.03 33.4196C106.372 33.7823 106.786 33.9758 107.298 33.9758C108.176 33.9758 108.859 33.3954 109.005 32.3556H108.273C108.152 32.8876 107.835 33.2503 107.298 33.2503C107.006 33.2503 106.762 33.1294 106.591 32.936C106.347 32.6458 106.299 32.3556 106.299 31.2916C106.299 30.2276 106.347 29.9374 106.591 29.6472C106.762 29.4537 107.006 29.3328 107.298 29.3328Z" fill="white"/>
<path fill-rule="evenodd" clip-rule="evenodd" d="M93.8159 32.8634V28.6558H93.1332V32.8876C93.1332 33.4438 93.4258 33.9275 94.0597 33.9275H94.4742V33.2745H94.1816C93.9134 33.2987 93.8159 33.1536 93.8159 32.8634Z" fill="white"/>
<path fill-rule="evenodd" clip-rule="evenodd" d="M114.661 15.6216H117.782L112.881 7.95591C112.735 7.71409 112.564 7.52063 112.369 7.37554C112.174 7.23044 111.931 7.1579 111.638 7.1579C111.345 7.1579 111.102 7.23044 110.907 7.37554C110.712 7.52063 110.517 7.71409 110.37 7.95591L101.813 21.4253H104.787L111.541 10.6401L114.661 15.6216Z" fill="white"/>
<path fill-rule="evenodd" clip-rule="evenodd" d="M116.002 17.798L118.318 21.4253H121.463L119.123 17.798H116.002Z" fill="white"/>
<path fill-rule="evenodd" clip-rule="evenodd" d="M93.7915 20.1195V7.2546H91.3047V17.5562L80.7968 7.71406C80.6017 7.54479 80.4311 7.39969 80.236 7.32715C80.0654 7.2546 79.8703 7.20624 79.6753 7.20624C79.2608 7.20624 78.9439 7.32715 78.7 7.59315C78.4562 7.85915 78.3343 8.22189 78.3343 8.65716V21.4253H80.8212V11.1237L91.2804 21.0626C91.6461 21.4011 92.0362 21.5946 92.475 21.5946C92.8651 21.5946 93.1577 21.4737 93.4015 21.2077C93.6696 20.9417 93.7915 20.5789 93.7915 20.1195Z" fill="white"/>
<path fill-rule="evenodd" clip-rule="evenodd" d="M49.0046 9.28593C48.3708 8.68138 47.5906 8.19774 46.7129 7.88337C45.8352 7.54482 44.86 7.37555 43.8116 7.37555H35.1809V21.4495H43.8116C44.86 21.4495 45.8352 21.2561 46.7129 20.8933C47.5906 20.5306 48.3708 20.0228 49.0046 19.394C49.6385 18.7653 50.1505 17.9915 50.5162 17.1209C50.8819 16.2504 51.0526 15.3073 51.0526 14.2674C51.0526 13.2518 50.8819 12.3087 50.5162 11.4623C50.1261 10.6159 49.6385 9.89049 49.0046 9.28593ZM48.1026 16.202C47.8588 16.7582 47.5418 17.266 47.1273 17.6529C46.7129 18.064 46.2253 18.3784 45.6645 18.6202C45.1038 18.862 44.4943 18.9588 43.8116 18.9588H37.7896V9.81794H43.8116C44.4699 9.81794 45.1038 9.93885 45.6645 10.1565C46.2253 10.3741 46.7129 10.6885 47.1273 11.0996C47.5418 11.5107 47.8588 11.9701 48.1026 12.5505C48.322 13.1067 48.4439 13.7113 48.4439 14.3884C48.4439 15.0171 48.322 15.6216 48.1026 16.202Z" fill="white"/>
<path d="M99.5697 7.35132H96.961V21.4253H99.5697V7.35132Z" fill="white"/>
<path d="M75.2137 7.35132H72.6049V21.4253H75.2137V7.35132Z" fill="white"/>
<path fill-rule="evenodd" clip-rule="evenodd" d="M60.6341 18.1849L53.8808 7.35132H50.7113L59.2445 20.8207C59.3907 21.0626 59.5614 21.256 59.7808 21.4011C59.9759 21.5462 60.2197 21.6187 60.5122 21.6187C60.7804 21.6187 61.0242 21.5462 61.2193 21.4011C61.4143 21.256 61.6094 21.0626 61.7556 20.8207L70.3376 7.35132H67.3388L60.6341 18.1849Z" fill="white"/>
<path fill-rule="evenodd" clip-rule="evenodd" d="M21.7717 0L20.5527 2.5633L19.2606 0H18.9436L17.7246 2.5633L16.4324 0H16.1155L0 33.8307H2.14548L16.3593 1.98293L17.2126 3.62731L2.82813 33.8065H4.97361L17.8709 4.90896L18.6754 6.4808L5.65626 33.8307H7.80174L19.3825 7.81081L32.9624 33.8307H33.3281L19.8457 6.81935L20.699 4.90896L35.7905 33.8307H36.1562L21.1622 3.82077L21.9912 1.98293L38.6186 33.8307H38.9843L22.0887 0H21.7717ZM19.163 5.46515L18.3585 3.84495L19.1874 2.00711L20.0407 3.65149L19.163 5.46515Z" fill="white"/>
<path d="M121.902 16.0811H109.371V17.3385H121.902V16.0811Z" fill="white"/>
</svg>
