<svg width="10" height="10" viewBox="0 0 10 10" fill="none" xmlns="http://www.w3.org/2000/svg">
<path d="M6.74366 1.90736H1.41736C1.16443 1.90736 0.921857 1.80689 0.743007 1.62804C0.564158 1.44919 0.463681 1.20661 0.463681 0.953683C0.463681 0.700752 0.564158 0.45818 0.743007 0.27933C0.921857 0.100481 1.16443 4.31787e-06 1.41736 4.31787e-06H9.04679C9.17214 -0.000373419 9.29632 0.0240364 9.4122 0.0718294C9.52807 0.119623 9.63336 0.189856 9.72199 0.278488C9.81062 0.367121 9.88085 0.472404 9.92865 0.58828C9.97644 0.704156 10.0009 0.828339 10.0005 0.953683V8.58312C10.0005 8.83605 9.9 9.07862 9.72115 9.25747C9.5423 9.43632 9.29973 9.5368 9.04679 9.5368C8.79386 9.5368 8.55129 9.43632 8.37244 9.25747C8.19359 9.07862 8.09311 8.83605 8.09311 8.58312V3.25587L1.62812 9.72086C1.44917 9.89968 1.20652 10.0001 0.953535 10C0.700552 9.99991 0.457967 9.89933 0.279144 9.72038C0.100322 9.54143 -8.93624e-05 9.29877 5.96756e-08 9.04579C8.94818e-05 8.79281 0.100672 8.55022 0.279621 8.3714L6.74366 1.90736Z" fill="#1D4696"/>
</svg>
