<svg width="151" height="34" viewBox="0 0 151 34" fill="none" xmlns="http://www.w3.org/2000/svg">
<path d="M144.889 30.3129H144.744C143.118 32.8667 140.439 34 137.386 34C133.143 34 129.044 31.688 129.044 27.2C129.044 19.8333 137.722 19.312 143.447 19.312H144.881V18.7C144.881 15.912 142.683 14.4462 139.63 14.4462C137.43 14.4296 135.308 15.2552 133.707 16.7507L130.517 13.8342C133.051 11.288 136.623 10.2 140.248 10.2C150.033 10.2 150.033 17.1889 150.033 20.4V33.4333H144.881L144.889 30.3129ZM144.553 23.2787H143.363C140.21 23.2787 134.776 23.5129 134.776 26.7769C134.776 28.8547 136.921 29.7538 138.783 29.7538C142.691 29.7538 144.553 27.7213 144.553 24.5556V23.2787Z" fill="white"/>
<path d="M111.863 10.7666H117.587V14.3555H117.687C118.285 13.0867 119.244 12.018 120.447 11.28C121.649 10.542 123.043 10.1667 124.457 10.2C125.153 10.2159 125.844 10.3278 126.51 10.5324V16.0026C125.607 15.7523 124.677 15.6102 123.739 15.5795C122.222 15.4841 120.729 15.9867 119.585 16.9776C118.441 17.9685 117.739 19.3673 117.633 20.8684C117.633 21.012 117.633 21.1555 117.633 21.2915V33.4333H111.909L111.863 10.7666Z" fill="white"/>
<path d="M94.0715 10.2C100.987 10.2 106.52 14.9676 106.52 22.1C106.52 29.2325 100.987 34 94.0715 34C87.1564 34 81.6227 29.2249 81.6227 22.1C81.6227 14.9751 87.1564 10.2 94.0715 10.2ZM94.0715 28.9C95.4297 28.9281 96.7658 28.5569 97.9109 27.8334C99.056 27.1098 99.9586 26.0664 100.505 24.8351C101.051 23.6037 101.216 22.2397 100.979 20.9156C100.742 19.5914 100.114 18.3665 99.1737 17.3957C98.2336 16.425 97.0238 15.7519 95.6973 15.4617C94.3709 15.1715 92.9872 15.2772 91.7214 15.7653C90.4556 16.2535 89.3644 17.1022 88.5858 18.2042C87.8072 19.3062 87.3761 20.612 87.3472 21.9565V22.1C87.3145 22.9614 87.4537 23.8207 87.7568 24.6288C88.0599 25.4369 88.5209 26.1779 89.1135 26.8094C89.7062 27.441 90.4188 27.9507 91.2105 28.3094C92.0023 28.6682 92.8578 28.8688 93.728 28.9H94.0715Z" fill="white"/>
<path d="M65.0677 10.7666H70.7921V14.3555H70.8913C71.49 13.0867 72.4491 12.018 73.6514 11.28C74.8537 10.542 76.2472 10.1667 77.6614 10.2C78.3581 10.2159 79.0491 10.3278 79.7146 10.5324V16.0026C78.8115 15.7523 77.8813 15.6102 76.944 15.5795C75.4269 15.4841 73.9333 15.9867 72.7892 16.9776C71.6452 17.9685 70.9437 19.3673 70.8379 20.8684C70.8379 21.012 70.8379 21.1555 70.8379 21.2915V33.4333H65.1135L65.0677 10.7666Z" fill="white"/>
<path d="M58.58 33.4333H53.138V29.7991H53.0464C51.9931 32.0658 49.8483 34 46.032 34C39.8802 34 37.6896 29.7009 37.6896 25.0769V10.7667H43.4141V22.2436C43.4141 24.7444 43.6049 28.9 47.612 28.9C51.3748 28.9 52.8556 26.1573 52.8556 23.1351V10.7667H58.58V33.4333Z" fill="white"/>
<path d="M14.6927 0H19.8905L34.4382 33.4333H27.5689L24.4242 25.7796H9.77733L6.7243 33.4333H0L14.6927 0ZM22.3253 20.6871L17.1275 7.08711L11.8305 20.6871H22.3253Z" fill="white"/>
</svg>
