<svg xmlns="http://www.w3.org/2000/svg" id="Layer_1" data-name="Layer 1" viewBox="0 0 174.58 206.41"><defs><style>.cls-1{fill:#07374a;}.cls-2,.cls-3{fill:#0989a3;}.cls-2{fill-rule:evenodd;}</style></defs><path class="cls-1" d="M210.71,227.33c0-1.59-1.08-2.47-2.92-3.13-1.08-.38-1.69-.85-1.69-1.7a1.45,1.45,0,0,1,1.64-1.38,4,4,0,0,1,2.13.6l.25-1.11a4.61,4.61,0,0,0-2.36-.62c-1.72,0-3,1-3,2.55s1,2.36,2.8,3c1.09.38,1.8.93,1.8,1.85s-.85,1.52-1.94,1.52a4.67,4.67,0,0,1-3.09-1.19l.36,1.55a4.52,4.52,0,0,0,2.71.79c2,0,3.29-1.13,3.29-2.73m-9.15-3.69a2.53,2.53,0,0,1,0,.29h-5.84a3.48,3.48,0,0,1,3.22-2.77,2.53,2.53,0,0,1,2.63,2.48m1.34-.06a3.72,3.72,0,0,0-4-3.59,4.82,4.82,0,0,0-4.65,5,5,5,0,0,0,5.08,5,5.57,5.57,0,0,0,2.78-.65l.38-1.5a4.76,4.76,0,0,1-3,1,3.7,3.7,0,0,1-3.83-3.82h6.44l.81-.79a3.5,3.5,0,0,0,0-.67m-10.74,6.26V223a3,3,0,0,0-3.34-3,3.67,3.67,0,0,0-3.35,1.51,3.19,3.19,0,0,0-2.85-1.51,3.3,3.3,0,0,0-3,1.27l0-1.06H178.4v9.64h1.35v-6.77c0-1.16,1-1.91,2.46-1.91s2.42.69,2.42,1.91v6.77H186v-6.77c0-1.16,1-1.91,2.47-1.91s2.39.69,2.39,1.91v6.77ZM175,225a3.72,3.72,0,1,1-3.71-3.87A3.69,3.69,0,0,1,175,225m1.35,0a5.08,5.08,0,1,0-5.06,5,4.92,4.92,0,0,0,5.06-5m-12.21,4.8v-6.49c0-2.11-1.57-3.36-3.68-3.36a3.52,3.52,0,0,0-3.06,1.3v-6.6h-1.35v15.15h1.35v-6.35c0-1.36,1.08-2.33,2.73-2.33s2.67,1,2.67,2.33v6.35Zm-13.88-14.92a4.12,4.12,0,0,0-1.59-.32c-2.51,0-4,1.56-4,4.51v1.09h-1.54v1.11h1.54v8.53h1.35v-8.53h2.79l.25-1.11h-3v-1.45c0-1.71.9-3,2.41-3a3.75,3.75,0,0,1,1.53.32ZM140.65,225a3.71,3.71,0,1,1-3.7-3.87,3.68,3.68,0,0,1,3.7,3.87m1.36,0a5.07,5.07,0,1,0-5.06,5,4.91,4.91,0,0,0,5.06-5m-16.53-4.84h-1.29l-2.09,4.89c-.34.79-.66,1.58-.95,2.38h-.05c-.3-.84-.64-1.65-1-2.42l-2.06-4.85h-1.41l3.72,8.79c-1.25,3-2.58,4.38-4.42,5l.83.85c1.91-.67,3.46-2.31,4.94-5.79Zm-10.38,9.05a1.61,1.61,0,0,1-1.23-1.66v-12.9h-1.34v13.06a2.34,2.34,0,0,0,1.65,2.42ZM109,220.2h-1.35v9.64H109Zm.23-2.89c0-.36-.6-1.05-.91-1.05s-.89.69-.89,1.05.56,1,.89,1,.91-.68.91-1m-4.62,12.53V223a3,3,0,0,0-3.34-3,3.67,3.67,0,0,0-3.34,1.51A3.22,3.22,0,0,0,95.06,220a3.31,3.31,0,0,0-3,1.27l0-1.06H90.86v9.64H92.2v-6.77c0-1.16,1-1.91,2.47-1.91s2.39.69,2.39,1.91v6.77h1.35v-6.77c0-1.16,1-1.91,2.48-1.91s2.38.69,2.38,1.91v6.77Zm-18-3.42A2.6,2.6,0,0,1,84,228.91a1.74,1.74,0,0,1-1.84-1.69,1.94,1.94,0,0,1,2-1.89l2.37-.21Zm2.54,2.76a1.46,1.46,0,0,1-1.19-1.58v-4.4c0-2.06-1.51-3.21-3.58-3.21a5.23,5.23,0,0,0-2.89.76l.28,1.13a5,5,0,0,1,2.55-.72c1.45,0,2.29.75,2.29,1.91V224l-2.58.26c-1.58.14-3.09,1.08-3.09,3A2.9,2.9,0,0,0,84,230.06a3.21,3.21,0,0,0,2.8-1.47,1.93,1.93,0,0,0,1.45,1.47ZM81,214.92a4.25,4.25,0,0,0-1.6-.32c-2.5,0-4,1.56-4,4.51v1.09H73.89v1.11h1.54v8.53h1.35v-8.53h2.8l.26-1.11H76.78v-1.45c0-1.71.91-3,2.41-3a3.65,3.65,0,0,1,1.53.32Zm-16.58,9.94H59.66l1.64-4.17c.26-.63.52-1.37.74-2.09h.05c.21.72.46,1.46.71,2.09Zm3.49,5L62.3,216h-.45l-5.62,13.85h1.41l1.53-3.8h5.75l1.55,3.8Z" transform="translate(-46.18 -28.39)"></path><path class="cls-1" d="M68.05,141.41a13.66,13.66,0,0,0-4-.85,4.68,4.68,0,0,0-3.77,1.92,7.14,7.14,0,0,0-1.55,4.7c0,.28,0,.55,0,.83h7v6.47H58.92v27.14H51.07V154.48H46.18V148H51.1a15.56,15.56,0,0,1,3.64-10,11.39,11.39,0,0,1,8.83-3.78,24,24,0,0,1,6.81,1.22Z" transform="translate(-46.18 -28.39)"></path><path class="cls-1" d="M128.68,155.32a8.26,8.26,0,0,0-4.62-1.38,6.25,6.25,0,0,0-4.85,2.48,9,9,0,0,0-2.12,6.06v19.14h-7.84V148h7.84v3.08a11.16,11.16,0,0,1,8.76-3.71A12.58,12.58,0,0,1,132,148.6Z" transform="translate(-46.18 -28.39)"></path><path class="cls-1" d="M143,161.32h16.52c-.55-4.92-3.26-7.38-8.16-7.38q-6.72,0-8.36,7.38m23.74,5.9h-24a8.48,8.48,0,0,0,2.77,6.24,10,10,0,0,0,6.85,2.23c3.57,0,6.29-.92,8.15-2.79l3.05,6q-4.16,3.36-12.37,3.37c-5.13,0-9.18-1.5-12.19-4.5s-4.45-7.2-4.45-12.58,1.63-9.59,4.9-12.87a16.08,16.08,0,0,1,11.79-4.92q7.32,0,11.76,4.34a15,15,0,0,1,4.42,11.13,22.72,22.72,0,0,1-.66,4.36" transform="translate(-46.18 -28.39)"></path><path class="cls-1" d="M171.6,179.46l2.79-6.25a12.39,12.39,0,0,0,7.94,2.81c3.06,0,4.59-1.1,4.59-3.28a4,4,0,0,0-1.39-3.14,20.69,20.69,0,0,0-5.36-2.89q-8.7-3.6-8.7-10.11a7.89,7.89,0,0,1,3.33-6.77,13.93,13.93,0,0,1,8.51-2.45,21.36,21.36,0,0,1,9.84,2.34l-2.25,6.1a10.69,10.69,0,0,0-7.15-2.19c-2.74,0-4.12,1.08-4.12,3.26A2.94,2.94,0,0,0,181,159.2a27.08,27.08,0,0,0,5.77,2.81,14.61,14.61,0,0,1,6.38,4.2,9.47,9.47,0,0,1,1.94,6,8.84,8.84,0,0,1-3.47,7.38c-2.3,1.77-5.45,2.67-9.43,2.67a21.13,21.13,0,0,1-5.39-.56,25.82,25.82,0,0,1-5.18-2.24" transform="translate(-46.18 -28.39)"></path><path class="cls-1" d="M202.55,154.31h-3.89V148h3.89v-6.83l7.84-2.89V148h9.24v6.31h-9.24V169c0,2.4.39,4.11,1.14,5.12s2.08,1.47,4,1.47a9.79,9.79,0,0,0,5.27-1.53v7.22a25.22,25.22,0,0,1-7.79,1q-5,0-7.72-2.84t-2.7-8.11Z" transform="translate(-46.18 -28.39)"></path><path class="cls-1" d="M101,155.42c-4.07-3.46-23.07-5.33-23.07,9.38,0,14.87,13.38,14.33,20.06,12.88-3.21,2.69-8,4.59-11.69,4.49a17.36,17.36,0,0,1-17.06-17.32,17.18,17.18,0,0,1,17.06-17.31,17.54,17.54,0,0,1,14.7,7.88" transform="translate(-46.18 -28.39)"></path><path class="cls-1" d="M89.29,174.38c4.16-.44,12-9.55,5.7-15.75-6.1-5.94-15.83-3.37-17.11,6.43-.25-15.9,16.79-19.23,23.3-9.33,2.81,4.27,3.14,11.34-1.46,15.93-2.64,2.63-6.78,3.38-10.43,2.72" transform="translate(-46.18 -28.39)"></path><polygon class="cls-1" points="14.9 178.44 14.9 171.91 7.21 171.91 7.21 178.44 4.94 178.44 4.94 163.51 7.21 163.51 7.21 169.97 14.9 169.97 14.9 163.51 17.18 163.51 17.18 178.44 14.9 178.44"></polygon><polygon class="cls-1" points="24.89 178.44 24.89 163.51 32.94 163.51 32.94 165.45 27.16 165.45 27.16 169.97 32.01 169.97 32.01 171.91 27.16 171.91 27.16 176.5 33.76 176.5 33.76 178.44 24.89 178.44"></polygon><path class="cls-1" d="M93.22,197.51a16.52,16.52,0,0,1-.62-1.81h0a11.9,11.9,0,0,1-.64,1.81l-1.47,3.65H94.7Zm3.86,9.32L95.47,203h-5.8l-1.62,3.86H85.84l6.35-15.14H93l6.37,15.14Z" transform="translate(-46.18 -28.39)"></path><polygon class="cls-1" points="59.87 178.44 59.87 163.51 62.14 163.51 62.14 176.5 68.71 176.5 68.71 178.44 59.87 178.44"></polygon><polygon class="cls-1" points="78.93 165.46 78.93 178.44 76.66 178.44 76.66 165.46 71.86 165.46 71.86 163.51 83.73 163.51 83.73 165.46 78.93 165.46"></polygon><polygon class="cls-1" points="100.01 178.44 100.01 171.91 92.31 171.91 92.31 178.44 90.04 178.44 90.04 163.51 92.31 163.51 92.31 169.97 100.01 169.97 100.01 163.51 102.28 163.51 102.28 178.44 100.01 178.44"></polygon><path class="cls-1" d="M167.65,194.54a7.63,7.63,0,0,0-3.74-1c-2.93,0-6,1.89-6,5.81s3,5.77,6,5.77a8,8,0,0,0,4.11-.93l-.47,2.18a8,8,0,0,1-3.91.72c-3.76,0-8-2.64-8-7.74s4.32-7.78,8-7.78a9,9,0,0,1,4.41,1Z" transform="translate(-46.18 -28.39)"></path><path class="cls-1" d="M181.23,197.51a18.83,18.83,0,0,1-.63-1.81h0a11.9,11.9,0,0,1-.64,1.81l-1.46,3.65h4.25Zm3.87,9.32L183.49,203h-5.81l-1.61,3.86h-2.23l6.37-15.14H181l6.37,15.14Z" transform="translate(-46.18 -28.39)"></path><path class="cls-1" d="M198.38,193.81H196.3v4.55h2.08a2.29,2.29,0,1,0,0-4.55m4.73,13-4.71-6.55h-2.1v6.55h-2.25V191.9h4.73a4.23,4.23,0,0,1,4.49,4.19,4,4,0,0,1-2.62,3.85l5.11,6.89Z" transform="translate(-46.18 -28.39)"></path><polygon class="cls-1" points="165.54 178.44 165.54 163.51 173.58 163.51 173.58 165.45 167.81 165.45 167.81 169.97 172.66 169.97 172.66 171.91 167.81 171.91 167.81 176.5 174.4 176.5 174.4 178.44 165.54 178.44"></polygon><path class="cls-2" d="M165.31,113.59l.2.29-4.8-.92v-.31C162.28,112.9,163.78,113.21,165.31,113.59Z" transform="translate(-46.18 -28.39)"></path><path class="cls-3" d="M193,126.09c-2.07-2.56-11.56-6.71-13-7.29a109.1,109.1,0,0,0-14.69-5.21l-.41-.6-1-9.56a33,33,0,0,1,3.58-1.15c2.85-.69,9,.13,12.48,1,1.38.37,3.08.89,3.08.89l-4.54-6.07L160.94,91.7l14.71.87-1.9-3.85-13.09-4.64,11.42.55-1.85-4.84-9.33-3.5,8.34.57-1.69-5.13c-.17-.5-.24-.57-.74-.74a27.9,27.9,0,0,1-4.22-1.6c-.41-.22-.85-.48-.85-.48h5l-1.87-6.34a12.86,12.86,0,0,1-2.62-.87,8.12,8.12,0,0,1-.94-.57h3.05l-2-8.26-1.21,5.35,1.78-.17a.9.9,0,0,0,0,.17s0,.05.06.05,0,.18-.22.35a6.39,6.39,0,0,1-2,.72L159,66l4.26-.18s-.68.38-1.26.67a17.38,17.38,0,0,1-3,1.11c-.5.17-.57.24-.73.74l-1.69,5.44,5.11-.17,1.59.07-7.57,2.69-1.91,5.19L163.2,81s-.3.31-.61.58S156.22,84,153,85.08a1,1,0,0,0-.79.72L150.76,89l-18.91-6.82,20.19,1L149.56,78l-17.13-6.36,14.87.85-2.7-6.86-11.66-4.08-.32-.41h.16V61l10.38.66-2.61-7.84-8.39-3.2,7.42.17-2.42-8.27c-.15-.5-.22-.57-.72-.73a18.44,18.44,0,0,1-3.5-1.28,3.29,3.29,0,0,1-.46-.58l4,.17-.24-1.29-2.59-10.37L131.77,36l2.79-.17V36c0,.05,0,.05,0,.07a.18.18,0,0,1,.12.24,17.31,17.31,0,0,1-3.28,1.2l-2.39,9.23,6-.34a7.31,7.31,0,0,1-.61.59A47.45,47.45,0,0,1,128.79,49c-.49.17-.57.24-.72.74l-2.26,7.65,8.59-.49a.41.41,0,0,0,0,.16c0,.08.16,0,.24.08a.56.56,0,0,1,.08.18L124.53,61l-2.6,7.24,12.82-.83s-.33.35-.68.67-9,3.24-13.53,4.79c-.5.17-.58.24-.78.72l-2.37,5.5L133.09,78a6.6,6.6,0,0,1,.94,0c.23,0,.65,0,.69.15s-.12.2-.2.28-.18.15-.67.32l-19.78,7.18-1.13,1.65s-7.73-2.44-8.19-2.95a2.15,2.15,0,0,1-.32-.49l10.21.49-1.71-4.54-8.74-3.57,7.66.34-1.75-5.26c-.16-.5-.24-.57-.73-.74a38.18,38.18,0,0,1-4.7-1.78c-.09-.06-.12-.13-.08-.16.37-.25,4.7,0,4.7,0s-1.22-5.51-1.73-6.1S104,61.13,104,61.13h3L105,53l-1.22,5.19,1.78-.17v.17a.07.07,0,0,0,.06.05c.06,0,0,.19-.22.35a5.49,5.49,0,0,1-1.84.57l-2,6.81,4.6-.2s-2.46,1-3.7,1.47a3.11,3.11,0,0,0-1.52,1.1c-.56,1.38-1.65,5.4-1.65,5.4l4.49-.17,2.25.06-7.62,2.7-1.91,5.19,9.39-.51a8.2,8.2,0,0,1-.61.58c-.41.35-6.44,2.35-9.69,3.45a1,1,0,0,0-.78.72l-1.55,3.7,12.18-.82v.16h.16v.26L91.23,94.43a1.17,1.17,0,0,0-.83.71,58.2,58.2,0,0,1-3.3,5.52c-1.14,1.58-2.76,3.56-2.76,3.56s1.8-.52,3.24-.89c3.7-1,9.32-1.76,12.32-1a35.72,35.72,0,0,1,3.56,1.1l-.2,8.79-.67,1.56-.19,0c-2.67.68-12.84,4-15.14,5A59.19,59.19,0,0,0,75.59,125c-1.08.73-2.28,1.61-1.85,1.5,3.31-.79,8.54-2.87,13-4.17,11.74-3.47,29.78-5.1,41.11-5.35,21.1-.46,29.87.68,47.75,4.13,2,.39,15.92,4.48,16.52,4.86s1.1.76,1.2.7S193.2,126.39,193,126.09Zm-61.8-23.39-.56,7.51c-6.06.43-19.75,1.75-23.26,2.23l-.82-9.27s2.06-.73,3.58-1.16a35.08,35.08,0,0,1,6.32,0l9.23,1.94s-3.82-5.66-4.53-6.07c-1.11-.63-2.25-.53-2.43-1-.34-.78,3.26-.76,4.37-.74a26.34,26.34,0,0,1,5.35.73c1.41.4,3.11,1,3.11,1Zm31.59-14.3a.9.9,0,0,0,0,.17s.07.05.11.05.09.11,0,.2a30.9,30.9,0,0,1-5.7,2.17,1.18,1.18,0,0,1-.65-.07c-1-.33-3.93-1.66-3.93-1.66Zm-2,24.25c-2.66-.42-5.5-.69-9-.9-4.73-.28-12.6-.72-14-1l-.75-.16-1-11.19c0-.53,0-.61.08-.82.36-.7,1.12-.92,2.18-1.14,3-.62,9.13-1.44,9.13-1.44a46,46,0,0,1-2.82,4.68,41,41,0,0,1-2.83,3.56l3.72-1c4.24-1.08,10-1.78,13.8-.45l1.59.58Z" transform="translate(-46.18 -28.39)"></path><path class="cls-1" d="M136.91,110.55l-1-11.19c0-.53,0-.61.08-.82.36-.69,1.12-.92,2.18-1.14,3-.62,9.14-1.44,9.14-1.44l3.41-7-18.91-6.82,20.2,1L149.53,78,132.4,71.61l14.87.85-2.69-6.86-11.67-4.08-.32-.41h.16V61l10.38.66-2.6-7.84-8.39-3.2,7.42.17-2.43-8.26c-.15-.51-.22-.58-.72-.74a18.71,18.71,0,0,1-3.5-1.28,3.71,3.71,0,0,1-.45-.57l4,.16-.24-1.29-2.6-10.37L131.75,36l2.78-.18V36s0,0,0,.07a.2.2,0,0,1,.13.24,17.56,17.56,0,0,1-3.28,1.2L129,46.69l6-.34a8.46,8.46,0,0,1-.62.59,47.13,47.13,0,0,1-5.6,2.06c-.5.17-.57.24-.72.74l-2.26,7.65,8.58-.49a.41.41,0,0,0,0,.16c0,.08.17,0,.25.08a.56.56,0,0,1,.08.18L124.51,61l-2.61,7.24,12.82-.83s-.32.35-.67.67-9,3.24-13.54,4.79a1,1,0,0,0-.78.73l-2.37,5.49L133.06,78a6.63,6.63,0,0,1,.94,0c.24,0,.65,0,.7.15s-.12.2-.2.28-.18.15-.68.33L114,85.9l-1.13,1.65,5.75,9.35c-.34-.78,3.26-.76,4.37-.74a26.25,26.25,0,0,1,5.35.73c1.42.4,3.11,1,3.11,1l-.36,4.75-.55,7.51Z" transform="translate(-46.18 -28.39)"></path></svg>