<svg xmlns="http://www.w3.org/2000/svg" xmlns:xlink="http://www.w3.org/1999/xlink" viewBox="0 0 195.31 55.39">
  <defs>
    <clipPath id="clip-path" transform="translate(0 0)">
      <rect width="195.31" height="55.39" style="fill: none"/>
    </clipPath>
  </defs>
  <title>toplogo</title>
  <g id="Layer_2" data-name="Layer 2">
    <g id="Layer_1-2" data-name="Layer 1">
      <g style="clip-path: url(#clip-path)">
        <path d="M27.8,26.58a9.37,9.37,0,0,0,2.61-4.5.22.22,0,0,1,.05-.11,17,17,0,0,1,10-4.6,17,17,0,0,1-7.34,8,.67.67,0,0,1-.31.07,9.54,9.54,0,0,0-5,1.1m2.52,6.76h0a.33.33,0,0,1,.1.11A17.08,17.08,0,0,1,31.7,44.4a17,17,0,0,1-5.39-9.62.15.15,0,0,1,0-.1,9.22,9.22,0,0,0,.54-5.19,9.35,9.35,0,0,0,3.45,3.85m-4-12.83A17,17,0,0,1,31.7,11,17.07,17.07,0,0,1,30.44,21.9a.33.33,0,0,1-.1.12,9.27,9.27,0,0,0-3.49,3.88,9.31,9.31,0,0,0-.53-5.16.58.58,0,0,1,0-.23m-6.38,5h0a1,1,0,0,1-.46,0,17,17,0,0,1-7.39-8.07,17,17,0,0,1,10,4.57.35.35,0,0,1,.08.19,9.5,9.5,0,0,0,2.61,4.46A9.92,9.92,0,0,0,20,25.48M43.81,27.7a16.8,16.8,0,0,1-10.76,2.17.31.31,0,0,1-.12-.07,9.29,9.29,0,0,0-4.76-2.11,9.81,9.81,0,0,0,4.63-2h0a.91.91,0,0,1,.38-.18,16.83,16.83,0,0,1,2.1-.14,17.17,17.17,0,0,1,8.53,2.33,26.12,26.12,0,0,0,8.75-8.56,26.51,26.51,0,0,0-9.67-1.9,22.51,22.51,0,0,0-2.43.13A26.15,26.15,0,0,0,42.52,5.29,26.06,26.06,0,0,0,31.7,11,26.23,26.23,0,0,0,26.28,0a26.23,26.23,0,0,0-5.42,11,17,17,0,0,1,5.37,9.49.57.57,0,0,1,0,.26,9.29,9.29,0,0,0-.53,5.16,9.8,9.8,0,0,0-3.31-3.77h0a.86.86,0,0,1-.25-.21A17.08,17.08,0,0,1,20.86,11,26.06,26.06,0,0,0,10,5.29,26.15,26.15,0,0,0,12.1,17.37a22.51,22.51,0,0,0-2.43-.13A26.27,26.27,0,0,0,0,19.14,26.12,26.12,0,0,0,8.75,27.7a17.17,17.17,0,0,1,8.53-2.33,17,17,0,0,1,2.1.14.64.64,0,0,1,.28.11,9.44,9.44,0,0,0,4.73,2.09,9.26,9.26,0,0,0-4.74,2.1.19.19,0,0,1-.11.05,16,16,0,0,1-2.26.16A17.17,17.17,0,0,1,8.75,27.7,26.12,26.12,0,0,0,0,36.26a26.51,26.51,0,0,0,9.67,1.9A20.26,20.26,0,0,0,12.1,38a17.07,17.07,0,0,1,7.43-8.09.25.25,0,0,1,.13,0h0a9.16,9.16,0,0,0,5.1-1.09,9.49,9.49,0,0,0-2.6,4.45h0a.42.42,0,0,1-.11.2A17,17,0,0,1,12.1,38,26.16,26.16,0,0,0,10,50.1a25.92,25.92,0,0,0,10.82-5.7,17.05,17.05,0,0,1,1.28-10.94.36.36,0,0,1,.13-.12h0a9.43,9.43,0,0,0,3.44-3.84,9.42,9.42,0,0,0,.52,5.15h0a.21.21,0,0,1,0,.13,17.06,17.06,0,0,1-5.4,9.62,26.23,26.23,0,0,0,5.42,11,26.23,26.23,0,0,0,5.42-11,26.06,26.06,0,0,0,10.82,5.7A26.16,26.16,0,0,0,40.46,38a17,17,0,0,1-10-4.57.2.2,0,0,1-.07-.13,9.24,9.24,0,0,0-2.62-4.52,9.35,9.35,0,0,0,5.06,1.09.31.31,0,0,1,.13,0A17.08,17.08,0,0,1,40.46,38a20.26,20.26,0,0,0,2.43.14,26.51,26.51,0,0,0,9.67-1.9,26.12,26.12,0,0,0-8.75-8.56" transform="translate(0 0)" style="fill: #8c7763"/>
        <path d="M68.28,20.29c0,3.63,0,4.32-.06,5.18h2.35c3.78-.12,4.92-.15,6.05-1,1.37-1.07,1.45-2.55,1.63-5.14l.84,0-.24,3.45c0,.71-.09,1.4-.09,2.14,0,1.19-.12,1.73-1,1.73-.45,0-2.59,0-3.07-.06L67,26.54c-1.37,0-4,.06-5.3.09l0-.81,3.43-.11c0-1.28.06-2.56.06-5.36V12.13c0-3.09,0-4.31-.06-5.71l-3.43-.06V5.59c1.61,0,3.28,0,4.89,0,2.7,0,4.73,0,5.14,0v.77l-3.57.06c0,.92,0,1.43,0,2.74,0,1,0,2,0,3Z" transform="translate(0 0)" style="fill: #8c7763"/>
        <path d="M85.78,7.31a1.58,1.58,0,0,1-1.61,1.61,1.6,1.6,0,1,1,0-3.19,1.58,1.58,0,0,1,1.61,1.58M85.45,25.8l2.09.05v.75c-.18,0-1.94,0-3.84,0-1.08,0-2.15,0-3.22,0v-.75l2.26-.05V14.61l-1.93.05,0-.74a21.91,21.91,0,0,0,4.4-.62l.36.26c0,1,0,2-.06,3,0,.77,0,1.52,0,2.29Z" transform="translate(0 0)" style="fill: #8c7763"/>
        <path d="M94.11,19.57c.06,2.62.09,3.7.21,6.23l2.32.05,0,.75c-1.22,0-2.5,0-3.72,0s-2.44,0-3.66,0v-.75l2.23-.05c0-1.76.06-3.52.06-5.27,0-1.46,0-2.92,0-4.38,0-.33,0-.62,0-.92H89.74v-.92h1.75c0-1.67.06-5.18,2-7.56A4.34,4.34,0,0,1,97,5c1.69,0,3.48.92,3.48,2.53a1.22,1.22,0,0,1-1.25,1.31,1.07,1.07,0,0,1-1.13-1c0-.15.09-.77.09-.92,0-.72-.54-1-1.25-1A2.52,2.52,0,0,0,94.86,7c-.78,1.18-.78,2.91-.78,6.22v1l3.72-.06v1H94.11Z" transform="translate(0 0)" style="fill: #8c7763"/>
        <path d="M108.6,18.09c-.09-1.28-.29-4.05-3.24-4.05-2.77,0-3.07,2.74-3.22,4.17,1.46.06,4.47,0,6.46-.12m2.89,5.12a6.68,6.68,0,0,1-1.1,1.87,5.66,5.66,0,0,1-4.35,2,7.15,7.15,0,0,1-6.93-7c0-3,2.5-6.84,6.46-6.84a6.19,6.19,0,0,1,2.83.68,5.46,5.46,0,0,1,2.91,4.32c0,.41-.15.71-.59.77-.09,0-.9.06-1,.06h-7.59a11.52,11.52,0,0,0,.26,3.45A4.26,4.26,0,0,0,106.61,26a3.87,3.87,0,0,0,3.18-1.48,6.66,6.66,0,0,0,1-1.64Z" transform="translate(0 0)" style="fill: #8c7763"/>
        <path d="M131.22,18.5c-.15,1.73-.21,3.37-.21,5.12,0,.87.06,1.55.12,2.23l-.47.27-1-1.13a9.11,9.11,0,0,1-5.89,2.06c-5.51,0-10.15-4-10.15-10.84a11.45,11.45,0,0,1,2.89-7.88,8.9,8.9,0,0,1,7.05-3.19,9.2,9.2,0,0,1,6.07,2.05l.63-1.13.68.12a56.72,56.72,0,0,0-.47,6.85l-.81,0a8.53,8.53,0,0,0-1.1-4.53,5.92,5.92,0,0,0-4.91-2.32A5.1,5.1,0,0,0,119,8.74c-1.49,2.35-1.67,5.81-1.67,7.8a14.42,14.42,0,0,0,.6,4.52c.89,2.77,3,4.89,6.22,4.89a6,6,0,0,0,4.46-1.88,8.65,8.65,0,0,0,1.94-5.6Z" transform="translate(0 0)" style="fill: #8c7763"/>
        <path d="M141.22,20.14c-1.2.15-4.77.6-4.77,3.1a2.19,2.19,0,0,0,2.09,2.29,4.09,4.09,0,0,0,2.68-1.37Zm4.85,4.38a4,4,0,0,1-.57,1.3,2.77,2.77,0,0,1-2.26,1.11,2.2,2.2,0,0,1-1.85-.84,1.66,1.66,0,0,1-.23-1,5.24,5.24,0,0,1-3.78,1.85c-1.61,0-3.49-1-3.49-3a3.67,3.67,0,0,1,2-3,12.35,12.35,0,0,1,5.38-1.45V16.9a3.55,3.55,0,0,0-.35-1.91,2.26,2.26,0,0,0-1.91-.77c-1.31,0-2.44.56-2.44.92,0,.09,0,.12.27.45a1.32,1.32,0,0,1,.42.95A1.18,1.18,0,0,1,136,17.73a1.31,1.31,0,0,1-1.28-1.37c0-2.26,3.72-3.15,5.32-3.15a3.6,3.6,0,0,1,3.52,2,6.77,6.77,0,0,1,.2,2.17l-.09,7a3.26,3.26,0,0,0,0,.77.62.62,0,0,0,.57.48c.48,0,.86-.66,1-1.34Z" transform="translate(0 0)" style="fill: #8c7763"/>
        <path d="M154.55,25.85v.75c-1.16,0-2.36,0-3.55,0s-2.44,0-3.66,0v-.75l2.27,0c0-.8,0-1.18.08-4.13V18.86c0-2-.05-2.65-.15-4.37l-2-.06.06-.78c.54,0,.86,0,1.19,0a7.93,7.93,0,0,0,3-.39l.32.21.12,2.21A4.08,4.08,0,0,1,156,13.09a2.28,2.28,0,0,1,2.47,2.26,1.73,1.73,0,0,1-1.66,1.75A1.2,1.2,0,0,1,155.5,16a1,1,0,0,1,.09-.41,5.57,5.57,0,0,0,.21-.84c0-.26-.27-.44-.63-.44a2.7,2.7,0,0,0-1.9,1.13,5,5,0,0,0-.93,3.45V25.8Z" transform="translate(0 0)" style="fill: #8c7763"/>
        <path d="M169.3,18.09c-.08-1.28-.29-4.05-3.24-4.05-2.77,0-3.06,2.74-3.21,4.17,1.46.06,4.46,0,6.45-.12m2.89,5.12a6.68,6.68,0,0,1-1.1,1.87,5.65,5.65,0,0,1-4.34,2,7.16,7.16,0,0,1-6.94-7c0-3,2.5-6.84,6.46-6.84a6.19,6.19,0,0,1,2.83.68A5.43,5.43,0,0,1,172,18.21c0,.41-.14.71-.59.77-.09,0-.89.06-1,.06h-7.59a11.86,11.86,0,0,0,.26,3.45A4.26,4.26,0,0,0,167.31,26a3.9,3.9,0,0,0,3.19-1.48,6.87,6.87,0,0,0,1-1.64Z" transform="translate(0 0)" style="fill: #8c7763"/>
        <path d="M68,38.59c1.79,0,3.78.06,5-.83a4.4,4.4,0,0,0,1.36-3.46,5.45,5.45,0,0,0-1.16-3.63,4.07,4.07,0,0,0-3.12-1.16,4.51,4.51,0,0,0-1.73.24C68,30,68,30.23,68,31.12Zm-3-8.84-2.95,0,0-.83c.54,0,1.22,0,1.82,0s1.28,0,1.84,0c2.23-.12,4.35-.3,5.15-.3a8.17,8.17,0,0,1,4.73,1.22,4.66,4.66,0,0,1,1.91,3.78c0,3.07-2.59,4.82-5.33,5.3-.3.06-.56.09-.83.12l1.22.27a6.46,6.46,0,0,1,2.65,1.1c1.63,1.31,1.75,3.66,1.81,5.18v1.1a2.8,2.8,0,0,0,.69,2.17,1.63,1.63,0,0,0,1,.45c.3,0,.56-.15.56-.48,0-.12-.2-.8-.2-.95,0-.57.56-.69.83-.69a1,1,0,0,1,1,1.05c0,.68-.59,1.87-2.56,1.87a4.34,4.34,0,0,1-1.25-.18,4.42,4.42,0,0,1-2.41-1.72,4.62,4.62,0,0,1-.86-2.59l-.06-1.31c-.21-3.34-.69-4.89-4.32-4.89l-1.52,0v4c0,1.49,0,2.77-.05,5.6l3.39,0v.8c-1.58,0-3.16,0-4.73,0s-3.28,0-4.92,0V49L65,49V48.5c.06-2,.06-3.27.09-5.62Z" transform="translate(0 0)" style="fill: #8c7763"/>
        <path d="M90.57,41.33c-.09-1.28-.29-4-3.24-4-2.77,0-3.07,2.74-3.22,4.17,1.46.06,4.47,0,6.46-.12m2.89,5.12a6.68,6.68,0,0,1-1.1,1.87,5.66,5.66,0,0,1-4.35,2,7.15,7.15,0,0,1-6.93-7c0-3,2.5-6.84,6.46-6.84a6.12,6.12,0,0,1,2.82.68,5.45,5.45,0,0,1,2.92,4.32c0,.41-.15.71-.59.77-.09,0-.9.06-1,.06H84.05a11.88,11.88,0,0,0,.27,3.45,4.27,4.27,0,0,0,4.26,3.55,3.88,3.88,0,0,0,3.18-1.49,6.66,6.66,0,0,0,1-1.64Z" transform="translate(0 0)" style="fill: #8c7763"/>
        <path d="M103.16,40.88a4.14,4.14,0,0,0-1-2.77,3.21,3.21,0,0,0-2.15-.77,2.27,2.27,0,0,0-2.5,2,1.81,1.81,0,0,0,.18.81c.45,1,1.46,1.25,2.71,1.55a11.42,11.42,0,0,1,1.85.5,3.8,3.8,0,0,1,2.41,3.66,4.41,4.41,0,0,1-4.47,4.38,5.48,5.48,0,0,1-3.24-1l-.54.53-.47-.27a9.73,9.73,0,0,0,.14-2A16.38,16.38,0,0,0,96,45.67l.68-.08c.24,2,1.37,3.78,3.72,3.78,1.76,0,2.83-1.08,2.83-2.33,0-1.63-1.7-2.11-2.74-2.38a15.69,15.69,0,0,1-2.08-.53A3.6,3.6,0,0,1,96,40.62a4,4,0,0,1,4-4.17,5.43,5.43,0,0,1,3,1l.45-.42.47.27a15.09,15.09,0,0,0-.12,2.38c0,.48,0,.83,0,1.13Z" transform="translate(0 0)" style="fill: #8c7763"/>
        <path d="M111.76,30.55a1.58,1.58,0,0,1-1.61,1.61,1.59,1.59,0,1,1,0-3.18,1.57,1.57,0,0,1,1.61,1.57M111.43,49l2.08.06v.74c-.18,0-1.93,0-3.84,0-1.07,0-2.14,0-3.21,0V49.1l2.26-.06V37.85l-1.93.06,0-.75a22.12,22.12,0,0,0,4.4-.62l.36.27c0,.95,0,2-.06,3,0,.78,0,1.52,0,2.29Z" transform="translate(0 0)" style="fill: #8c7763"/>
        <path d="M124.73,39.72A3.82,3.82,0,0,0,123.09,38a4,4,0,0,0-2-.51,3.33,3.33,0,0,0-2.59,1.1,6.48,6.48,0,0,0-1.25,4.2c0,1.78.39,6.4,3.9,6.4a4.59,4.59,0,0,0,3.57-1.91Zm2.65,9.17,2,0,0,.8a11.73,11.73,0,0,0-4,.6l-.62-.33-.06-1.58a4.64,4.64,0,0,1-2,1.52,6,6,0,0,1-2.18.42,6.62,6.62,0,0,1-6.34-7A6.74,6.74,0,0,1,116,38.65a6.45,6.45,0,0,1,4.67-2.2,5.46,5.46,0,0,1,2,.36,4.26,4.26,0,0,1,2.11,1.6V29.6h-2.68l0-.83c2.29,0,3.54,0,4.94-.89l.54.35c-.09,1.25-.12,1.79-.18,6.64Z" transform="translate(0 0)" style="fill: #8c7763"/>
        <path d="M139.64,41.33c-.09-1.28-.3-4-3.25-4-2.76,0-3.06,2.74-3.21,4.17,1.46.06,4.46,0,6.46-.12m2.89,5.12a6.51,6.51,0,0,1-1.11,1.87,5.64,5.64,0,0,1-4.34,2,7.16,7.16,0,0,1-6.94-7c0-3,2.5-6.84,6.46-6.84a6.16,6.16,0,0,1,2.83.68,5.45,5.45,0,0,1,2.92,4.32c0,.41-.15.71-.6.77-.09,0-.89.06-1,.06h-7.59a11.55,11.55,0,0,0,.27,3.45,4.26,4.26,0,0,0,4.25,3.55,3.9,3.9,0,0,0,3.19-1.49,6.87,6.87,0,0,0,1-1.64Z" transform="translate(0 0)" style="fill: #8c7763"/>
        <path d="M148.15,49l2.08.06v.74c-1.16,0-2.35,0-3.51,0s-2.35,0-3.51,0V49.1l2.26-.06V37.76l-1.91,0V37a13.94,13.94,0,0,0,4.11-.56l.39.36.06,1.45a5.34,5.34,0,0,1,4-1.81,5,5,0,0,1,3.81,1.6c1,1.14,1,2,.89,5.27L156.75,49l2.08.06,0,.74c-1.19,0-2.38,0-3.54,0s-2.17,0-3.24,0V49.1l2-.06c.21-2.5.24-5,.24-7.59,0-1.91,0-4.11-2.59-4.11a4.73,4.73,0,0,0-3.57,1.82Z" transform="translate(0 0)" style="fill: #8c7763"/>
        <path d="M171.21,47.43a6,6,0,0,1-5.27,2.86,7,7,0,0,1-6.1-4.08,6.44,6.44,0,0,1-.56-2.65,7.11,7.11,0,0,1,6.93-7.11c2.5,0,4.49,1.52,4.49,3.15a1.35,1.35,0,0,1-1.31,1.46,1.23,1.23,0,0,1-1.21-1.22,1.8,1.8,0,0,1,.23-.71c.21-.21.3-.33.3-.51,0-.42-1-1.31-2.5-1.31a3.58,3.58,0,0,0-2.83,1.37,8.13,8.13,0,0,0-1.1,4.46c0,1,.12,3.4,1.13,4.71a3.78,3.78,0,0,0,3.07,1.43A5.23,5.23,0,0,0,170.62,47Z" transform="translate(0 0)" style="fill: #8c7763"/>
        <path d="M181.83,41.33c-.09-1.28-.29-4-3.24-4-2.77,0-3.07,2.74-3.21,4.17,1.45.06,4.46,0,6.45-.12m2.89,5.12a6.68,6.68,0,0,1-1.1,1.87,5.65,5.65,0,0,1-4.35,2,7.15,7.15,0,0,1-6.93-7c0-3,2.5-6.84,6.46-6.84a6.19,6.19,0,0,1,2.83.68,5.43,5.43,0,0,1,2.91,4.32c0,.41-.15.71-.59.77-.09,0-.89.06-1,.06h-7.59a11.86,11.86,0,0,0,.26,3.45,4.27,4.27,0,0,0,4.26,3.55A3.91,3.91,0,0,0,183,47.79a6.87,6.87,0,0,0,1-1.64Z" transform="translate(0 0)" style="fill: #8c7763"/>
        <path d="M193.82,40.88a4,4,0,0,0-1-2.77,3.19,3.19,0,0,0-2.14-.77,2.27,2.27,0,0,0-2.5,2,1.81,1.81,0,0,0,.18.81c.44,1,1.46,1.25,2.71,1.55a11,11,0,0,1,1.84.5,3.79,3.79,0,0,1,2.41,3.66,4.41,4.41,0,0,1-4.46,4.38,5.52,5.52,0,0,1-3.25-1l-.53.53-.48-.27a9.52,9.52,0,0,0,.15-2,13.86,13.86,0,0,0-.09-1.79l.69-.08c.23,2,1.36,3.78,3.72,3.78,1.75,0,2.82-1.08,2.82-2.33,0-1.63-1.69-2.11-2.74-2.38a16.11,16.11,0,0,1-2.08-.53,3.62,3.62,0,0,1-2.44-3.51,4,4,0,0,1,4-4.17,5.35,5.35,0,0,1,3,1l.45-.42.48.27a15.09,15.09,0,0,0-.12,2.38c0,.48,0,.83,0,1.13Z" transform="translate(0 0)" style="fill: #8c7763"/>
      </g>
    </g>
  </g>
</svg>
