<?xml version="1.0" encoding="UTF-8"?> <svg xmlns="http://www.w3.org/2000/svg" xmlns:xlink="http://www.w3.org/1999/xlink" width="262.217" height="50.023" viewBox="0 0 262.217 50.023"><defs><clipPath id="clip-path"><rect id="Rectangle_48" data-name="Rectangle 48" width="262.217" height="50.023" fill="none"></rect></clipPath></defs><g id="swanton-logo" transform="translate(0 0)"><g id="Group_132" data-name="Group 132" transform="translate(0 0)" clip-path="url(#clip-path)"><path id="Path_240" data-name="Path 240" d="M124.372,40.749a85.778,85.778,0,0,1-8.381,17.766h-1.474c-2.816,0-4.961-2.614-6.168-4.827a60.886,60.886,0,0,1-5.967-16.224c-1.139,5.5-5.363,16.693-8.581,21.051H92.595c-2.682,0-5.229-2.681-6.436-4.827A86.994,86.994,0,0,1,75.834,21.91h4.827a5.265,5.265,0,0,1,5.23,4.358,79.455,79.455,0,0,0,5.766,19.576c3.285-7.173,5.095-14.95,6.837-22.593h2.95c2.749,0,5.5,1.139,6.369,5.1a85.1,85.1,0,0,0,5.833,17.5c3.419-7.576,5.363-15.956,6.771-24.135h3.754c2.548,0,4.358,1.139,4.358,3.888,0,1.408-1.475,7.643-4.157,15.152" transform="translate(-37.257 -10.666)" fill="#662b80"></path><path id="Path_241" data-name="Path 241" d="M199.136,58.262h-1.81c-8.581,0-14.481-4.827-14.481-11.464,0-6.436,4.693-11.33,17.968-11.33h3.15V35c0-5.1-2.413-6.637-7.776-6.637-6.5,0-10.123,2.481-11.464,4.157h-.335V29.635c0-4.022,3.62-8.849,13.14-8.849,8.045,0,15.285,3.754,15.285,16.224v8.313c0,7.643-5.632,12.939-13.676,12.939M204.029,41.9h-3.218c-6.839,0-8.783,1.609-8.783,4.559,0,2.816,2.279,4.492,6.235,4.492,3.889,0,5.766-1.877,5.766-5.565Z" transform="translate(-89.832 -10.212)" fill="#662b80"></path><path id="Path_242" data-name="Path 242" d="M281.2,57.53c-4.023,0-6.57-2.548-6.57-5.9V37.283c0-6.1-2.682-8.782-7.307-8.782-3.889,0-6.57,2.949-6.57,8.112V57.53H258.07c-3.821,0-6.3-2.548-6.3-5.9V36.009c0-7.643,5.027-15.486,16.291-15.486,8.514,0,15.553,5.7,15.553,15.956V57.53Z" transform="translate(-123.694 -10.083)" fill="#662b80"></path><path id="Path_243" data-name="Path 243" d="M330.818,8.506c1.207-1.408,2.816-2.48,4.224-2.48h2.078V14.2h12.537v3.687c0,1.878-1.676,4.291-5.364,4.291h-7.173V36.329c0,4.693,2.079,6.5,5.7,6.5,2.883,0,5.1-.4,6.5-1.274h.335v3.218c0,3.688-2.681,6.034-7.911,6.034-9.117,0-13.542-4.961-13.542-13.408V15.68c0-3.553.67-4.895,2.615-7.174" transform="translate(-161.247 -2.961)" fill="#662b80"></path><path id="Path_244" data-name="Path 244" d="M482.3,57.53c-4.022,0-6.57-2.548-6.57-5.9V37.283c0-6.1-2.682-8.782-7.307-8.782-3.888,0-6.57,2.949-6.57,8.112V57.53h-2.682c-3.821,0-6.3-2.548-6.3-5.9V36.009c0-7.643,5.027-15.486,16.291-15.486,8.514,0,15.553,5.7,15.553,15.956V57.53Z" transform="translate(-222.494 -10.083)" fill="#662b80"></path><path id="Path_245" data-name="Path 245" d="M410.594,38.218c.25-.461.406-1.167,1.071-1.012.687.161.674.883.594,1.443-.838,5.8-2.573,11.143-7.585,14.808a9.972,9.972,0,0,0-.979.8c-.224.211-.6.438-.334.811.234.328.564.078.816-.039a14.36,14.36,0,0,0,3.093-2.167c2.313-1.933,3.46-4.567,4.431-7.311a14.454,14.454,0,0,1,1.092-2.567c.153-.259.336-.567.674-.5s.44.4.458.711a12.233,12.233,0,0,1-1.6,7.269,32.344,32.344,0,0,1-6.408,7.879,7.424,7.424,0,0,0-.86.922c-.183.221-.274.5-.007.721.251.211.469,0,.63-.155a54.972,54.972,0,0,0,4.406-4.264,23.338,23.338,0,0,0,2.439-3.784,13.18,13.18,0,0,1,.77-1.217c.206-.295.448-.637.877-.422a.749.749,0,0,1,.309.948,14.26,14.26,0,0,1-1.594,3.619c-1.65,2.865-3.277,5.771-6.148,7.669-.2.132-.559.264-.3.614.242.323.509.068.71-.064a16.134,16.134,0,0,0,4.043-3.954c.629-.844,1.206-1.726,1.832-2.571.207-.279.487-.663.884-.408.327.21.153.6.027.907-2.73,6.625-9.48,12.467-18.227,11.219a22.332,22.332,0,0,1-10.522-3.847,5.491,5.491,0,0,1-2.563-5.451c.049-.315-.121-.618-.061-.934,1.174-4.719,3.54-8.521,7.939-10.964a21.352,21.352,0,0,1,7.255-2.579c.3-.045.594-.095.887-.162.611-.14,1.252-.4,1.712.3a2.247,2.247,0,0,1-.166,2.455,4.279,4.279,0,0,1-1.231.9,30.1,30.1,0,0,1-3.651,1.548,7.313,7.313,0,0,0-1.156.5c-.261.152-.553.31-.5.674s.362.472.654.539a8.008,8.008,0,0,0,5.123-.074,21.84,21.84,0,0,0,5.747-3.521,15.949,15.949,0,0,0,3.723-5.7c.426-.929.789-1.885,1.172-2.833.143-.274.206-.6.52-.76" transform="translate(-187.951 -18.269)" fill="#a9c738"></path><path id="Path_246" data-name="Path 246" d="M377.087,51.718a1.326,1.326,0,0,1-.345-.048c-1.192-.322-1.012-1.674-.944-2.182a31.154,31.154,0,0,1,2.638-9.019,17.888,17.888,0,0,1,4.978-5.806c.2-.174.414-.338.625-.5l.138-.107c-.3.165-.563.328-.807.491a13.791,13.791,0,0,0-5.455,6.919c-.341.951-.715,1.9-1.078,2.823l-.185.472a5.573,5.573,0,0,1-.445.886l-.048.08a1.13,1.13,0,0,1-.964.682,1.065,1.065,0,0,1-.165-.013,1.2,1.2,0,0,1-.936-1.183,8.584,8.584,0,0,1,.092-2.449c.033-.246.067-.492.093-.738a10.285,10.285,0,0,1,.989-3.39.969.969,0,0,1-.575.184,1.193,1.193,0,0,1-.548-.143c-1.083-.559-.578-1.706-.362-2.2l.074-.169a32.473,32.473,0,0,1,1.6-3.285c.112-.193.225-.386.337-.579a1.139,1.139,0,0,1-.893.571.945.945,0,0,1-.535-.174,1.131,1.131,0,0,1-.23-1.528,19.713,19.713,0,0,1,4.247-6.46c2.425-2.285,5.452-4.671,9.516-5.041,1-.091,1.979-.137,2.912-.137a20.166,20.166,0,0,1,14.172,5.147,4.016,4.016,0,0,1,1.351,2.58,14.046,14.046,0,0,1-.005,3.01l-.008.053-.018.051a23.142,23.142,0,0,1-4.186,7.939,16.084,16.084,0,0,1-8.566,5.106,5.3,5.3,0,0,1-1.159.123,10.793,10.793,0,0,1-3.089-.574,1.262,1.262,0,0,1-.956-1.151,1.191,1.191,0,0,1,.853-1.253c.558-.233,1.119-.459,1.68-.686.607-.245,1.216-.49,1.821-.745a8.664,8.664,0,0,0,2.315-1.248,1.526,1.526,0,0,0,.325-1.809.183.183,0,0,0-.2-.109.9.9,0,0,0-.135.011,22,22,0,0,0-11.3,4.745,9.723,9.723,0,0,0-2.932,3.622c-.212.506-.449,1-.678,1.486a13.774,13.774,0,0,0-1.274,3.415l-.019.1-.059.087h0c.008,0,.008.035,0,.069a.978.978,0,0,1-.336.728c-.025.058-.049.119-.074.181-.175.433-.467,1.158-1.243,1.158Zm2.78-19.679a16.78,16.78,0,0,0-2.547,3.292q.275-.378.55-.752c.215-.291.43-.583.64-.876a19,19,0,0,1,1.356-1.663" transform="translate(-183.488 -9.666)" fill="#662b80"></path><path id="Path_247" data-name="Path 247" d="M390.322,19.691a19.756,19.756,0,0,1,13.832,5.015,3.493,3.493,0,0,1,1.186,2.26,13.329,13.329,0,0,1-.005,2.887,22.425,22.425,0,0,1-4.086,7.768,15.67,15.67,0,0,1-8.3,4.95,4.785,4.785,0,0,1-1.048.11,10.3,10.3,0,0,1-2.941-.552.761.761,0,0,1-.6-.707.717.717,0,0,1,.542-.741c1.164-.486,2.34-.943,3.5-1.431a9.134,9.134,0,0,0,2.445-1.328,2.04,2.04,0,0,0,.437-2.453.682.682,0,0,0-.641-.363,1.425,1.425,0,0,0-.208.017,22.558,22.558,0,0,0-11.554,4.858,10.107,10.107,0,0,0-3.076,3.816,24.89,24.89,0,0,0-1.982,5.006c-.151.224.015.581-.308.733-.233.46-.361,1.179-.919,1.179a.814.814,0,0,1-.212-.031c-.708-.191-.659-.973-.573-1.624a30.553,30.553,0,0,1,2.595-8.871,17.4,17.4,0,0,1,4.848-5.635c.342-.294.71-.558,1.058-.844.258-.212.586-.483.4-.818a.346.346,0,0,0-.315-.2,1.365,1.365,0,0,0-.556.21,13.157,13.157,0,0,0-1.242.727,14.223,14.223,0,0,0-5.651,7.17c-.395,1.1-.83,2.19-1.259,3.281a5.028,5.028,0,0,1-.4.8c-.141.227-.271.521-.579.521a.561.561,0,0,1-.085-.007c-.416-.066-.468-.456-.514-.765a12.139,12.139,0,0,1,.188-3.051c.338-3.228,2.357-5.6,4.142-8.077a25.612,25.612,0,0,1,3.9-4.121c.4-.351,1.157-.87.679-1.358a.472.472,0,0,0-.335-.168c-.367,0-.676.582-.975.836-.869.74-1.7,1.525-2.518,2.324a17.147,17.147,0,0,0-3.048,4.008c-.347.632-.67,1.282-1.072,1.878-.229.34-.43.91-.865.91a.689.689,0,0,1-.314-.087c-.651-.335-.354-1.031-.13-1.539a33.746,33.746,0,0,1,1.645-3.4c1.59-2.731,3.186-5.472,5.93-7.272.188-.124.559-.275.283-.608a.341.341,0,0,0-.269-.141.909.909,0,0,0-.454.2,17.183,17.183,0,0,0-4.3,4.325c-.545.756-1.064,1.532-1.632,2.269-.137.178-.3.451-.549.451a.451.451,0,0,1-.25-.087c-.354-.239-.175-.623-.047-.907a19.083,19.083,0,0,1,4.128-6.29c2.626-2.474,5.485-4.565,9.213-4.9.967-.089,1.923-.135,2.866-.135m0-1.017h0c-.949,0-1.944.047-2.958.139-4.218.385-7.33,2.833-9.818,5.177a20.16,20.16,0,0,0-4.358,6.613c-.542,1.2-.078,1.841.406,2.167a1.5,1.5,0,0,0,.534.232c-.455.866-.846,1.755-1.227,2.621l-.069.157c-.607,1.378-.407,2.338.595,2.854a1.791,1.791,0,0,0,.511.176,10.369,10.369,0,0,0-.651,2.669c-.025.241-.058.482-.091.723a8.961,8.961,0,0,0-.092,2.582c.141.959.6,1.5,1.361,1.621a1.524,1.524,0,0,0,.244.019,1.409,1.409,0,0,0,.563-.112q-.286,1.3-.462,2.617c-.2,1.528.239,2.45,1.315,2.741a1.827,1.827,0,0,0,.478.066,1.923,1.923,0,0,0,1.714-1.476l.027-.068a1.509,1.509,0,0,0,.414-.943l.034-.05.039-.209a13.434,13.434,0,0,1,1.232-3.288c.232-.487.472-.992.688-1.509a9.262,9.262,0,0,1,2.79-3.428,21.447,21.447,0,0,1,10.938-4.616,1.053,1.053,0,0,1-.281,1,8.168,8.168,0,0,1-2.142,1.151l-.041.017c-.6.253-1.209.5-1.815.742-.563.227-1.125.454-1.685.688a1.7,1.7,0,0,0-1.164,1.765,1.765,1.765,0,0,0,1.315,1.6,11.242,11.242,0,0,0,3.236.6,5.815,5.815,0,0,0,1.27-.135,16.575,16.575,0,0,0,8.833-5.262,23.583,23.583,0,0,0,4.289-8.109l.036-.1.014-.107a14.463,14.463,0,0,0,.01-3.107v-.014l0-.014a4.513,4.513,0,0,0-1.514-2.9,20.659,20.659,0,0,0-14.514-5.278" transform="translate(-183.004 -9.175)" fill="#fff"></path><path id="Path_248" data-name="Path 248" d="M1.953,39.3,0,36.006l3.341-1.523c2.287-.743,5.217-.777,7.074,1.182A13.1,13.1,0,0,0,20.2,39.914c4.947,0,7.9-2.083,7.9-5.573,0-9.113-25.709-3.151-25.709-20.739C2.386,5.487,9.284,0,19.2,0c7.38,0,14.083,2.942,16.988,7.646l-1.5,2.733c-2.714,2.99-5.481,2.458-7.426.749a10.766,10.766,0,0,0-7.621-2.974c-4.477,0-7.253,1.994-7.253,5.205,0,9.932,25.945,3.017,25.945,20.68,0,8.427-7.4,13.957-18.051,13.957C12.3,48,5.135,44.492,1.953,39.3" transform="translate(0 0)" fill="#662b80"></path></g></g></svg> 