<svg xmlns="http://www.w3.org/2000/svg" width="177.1" height="98" viewBox="0 0 177.1 98"><path fill="#55565A" d="M87.9 27.4h.2v43.1h-.2z"/><path fill="#55565A" d="M66.5 48.9h43.1v.2H66.5z"/><path fill="#55565A" d="M72.7 64.2l30.5-30.5.2.1-30.5 30.5z"/><path fill="#55565A" d="M72.7 33.8l.2-.1 30.5 30.5-.2.1z"/><path fill="#55565A" d="M49.1 75.3l77.8-52.8.1.2-77.8 52.8z"/><path fill="#55565A" d="M61.6 10.3l.2-.1 52.7 77.5-.2.1z"/><path fill="#55565A" d="M55.8 62.5l64.4-27.2.1.2-64.4 27.2z"/><path fill="#55565A" d="M74.39 17.101l.185-.078 27.077 64.01-.184.078z"/><path fill="#55565A" d="M42.2 58.5l91.7-19.2v.3L42.2 58.7z"/><path fill="#55565A" d="M78.4 3.2h.2l19.1 91.6-.2.1z"/><path fill="#55565A" d="M42 40.6l.1-.2 91.9 17v.2z"/><path fill="#55565A" d="M79.324 95.442L96.561 2.53l.196.036L79.521 95.48z"/><path fill="#55565A" d="M55.738 35.784l.076-.185 64.403 26.66-.076.185z"/><path fill="#55565A" d="M74.7 81l26.5-64.1.2.1-26.5 64.1z"/><path fill="#55565A" d="M48.6 23.9l.1-.2 78.8 50.4-.2.2z"/><path fill="#55565A" d="M62.5 88.7l50.9-79.6.2.2-50.9 79.6z"/><path fill="#CAC8C8" d="M67 18.4l14.7-6s-5.6-.8-11.4-6.9c0 8.7-3.3 12.9-3.3 12.9"/><path fill="#55565A" d="M66.9 18.4s.2-.3.5-.8.7-1.3 1.1-2.4c.8-2.1 1.7-5.3 1.7-9.6v-.3l.2.2c4.3 4.6 8.5 6.1 10.4 6.6.6.2 1 .2 1 .2l.4.1L67 18.5l-.1-.1.1.2-.4.2.3-.4zm.4-.2l14-5.7c-1.4-.3-6-1.6-10.8-6.6-.1 7-2.4 11.1-3.2 12.3"/><path fill="#CAC8C8" d="M109.1 18.4l-14.7-6s5.6-.8 11.4-6.9c0 8.7 3.3 12.9 3.3 12.9"/><path fill="#55565A" d="M93.9 12.4l.4-.1s.3 0 .9-.2c.6-.2 1.5-.5 2.5-.9 2.1-1 4.9-2.7 7.8-5.7l.2-.2v.3c0 6.4 1.9 10.4 2.8 12 .3.5.5.8.5.8l-.1.1v-.1.1l.1-.1.3.3-15.4-6.3zm14.9 5.8c-.7-1.1-3-5.2-3.1-12.3-4.8 5-9.5 6.3-10.9 6.6l14 5.7z"/><path fill="#CAC8C8" d="M124.3 41.9l-6.2-14.6s4.5 3.4 12.9 3.1c-6 6.2-6.7 11.5-6.7 11.5"/><path fill="#55565A" d="M117.9 26.9l.3.3s.3.2.8.5 1.3.7 2.3 1.1c2 .8 5 1.6 8.9 1.6h1.2l-.2.2c-4.5 4.6-6 8.7-6.5 10.5-.2.6-.2.9-.2.9l-.1.4-6.5-15.5zm6.4 15h.1-.1zm0-.4c.3-1.3 1.5-5.8 6.5-10.9h-.6c-6.6 0-10.6-2.2-11.8-3l5.9 13.9z"/><path fill="#CAC8C8" d="M51.7 41.9l6.2-14.6s-4.5 3.4-12.9 3.1c6 6.2 6.7 11.5 6.7 11.5"/><path fill="#55565A" d="M51.6 41.9s0-.3-.2-.9c-.2-.6-.4-1.4-.9-2.5-.9-2.1-2.6-4.9-5.6-8l-.2-.2h1.2c5.9 0 9.7-1.8 11.2-2.7.5-.3.8-.5.8-.5l.3-.3-6.4 15-.2.4v-.3zm.1 0h.1-.1zm.1-.4l5.9-13.9c-1.1.7-5.2 3-11.8 3h-.6c4.9 5.1 6.2 9.6 6.5 10.9"/><path fill="#CAC8C8" d="M67 79.5l14.7 6s-5.6.8-11.4 6.9c0-8.6-3.3-12.9-3.3-12.9"/><path fill="#55565A" d="M70.2 92.4c0-6.4-1.9-10.4-2.8-12-.3-.5-.5-.8-.5-.8l.1-.1-.1.1-.3-.3 15.5 6.3-.4.1s-.3 0-1 .2c-.6.2-1.5.5-2.5.9-2.1 1-4.9 2.7-7.8 5.7l-.2.2v-.3zm.3-.3c4.8-5 9.5-6.3 10.9-6.6l-14-5.7c.7 1.1 3 5.2 3.1 12.3"/><path fill="#CAC8C8" d="M109.1 79.5l-14.7 6s5.6.8 11.4 6.9c0-8.6 3.3-12.9 3.3-12.9"/><path fill="#55565A" d="M105.6 92.5c-4.3-4.6-8.5-6.1-10.4-6.6-.6-.2-.9-.2-.9-.2l-.4-.1 15.1-6.1.4-.2-.3.3s-.2.3-.5.8-.7 1.3-1.1 2.4c-.8 2.1-1.7 5.3-1.7 9.6v.3l-.2-.2zm0-.4c.1-7.1 2.4-11.2 3.1-12.3l-14 5.7c1.4.3 6.1 1.6 10.9 6.6"/><path fill="#CAC8C8" d="M124.3 56l-6.2 14.6s4.5-3.4 12.9-3.1c-6-6.1-6.7-11.5-6.7-11.5"/><path fill="#55565A" d="M124.2 56l.2-.4.1.4s0 .3.2.9c.2.6.4 1.4.9 2.5.9 2.1 2.6 4.9 5.6 8l.2.2h-1.2c-5.9 0-9.7 1.8-11.2 2.7-.5.3-.8.5-.8.5l-.3.3 6.3-15.1zm-5.8 14.3c1.1-.7 5.2-3 11.8-3h.6c-4.9-5.1-6.2-9.6-6.5-10.9l-5.9 13.9zm5.8-14.3h.1-.1z"/><path fill="#CAC8C8" d="M51.7 56l6.2 14.6s-4.5-3.4-12.9-3.1c6-6.1 6.7-11.5 6.7-11.5"/><path fill="#55565A" d="M57.9 70.7s-.3-.2-.8-.5-1.3-.7-2.3-1.1c-2-.8-5-1.6-8.9-1.6h-1.2l.2-.2c4.5-4.6 6-8.7 6.5-10.5.2-.6.2-.9.2-.9l.1-.4L58.2 71l-.3-.3zm-.2-.4l-5.9-13.9c-.3 1.3-1.5 5.8-6.5 10.9h.6c6.6.1 10.6 2.3 11.8 3"/><path fill="#DBD9D6" d="M125.1 49c0 20.5-16.6 37.1-37.1 37.1S50.9 69.5 50.9 49 67.5 11.9 88 11.9s37.1 16.6 37.1 37.1M88 14.2c-19.2 0-34.8 15.6-34.8 34.8 0 19.2 15.6 34.8 34.8 34.8 19.2 0 34.8-15.6 34.8-34.8 0-19.2-15.6-34.8-34.8-34.8"/><path fill="#55565A" d="M50.8 49c0-20.6 16.7-37.2 37.2-37.2 20.5 0 37.2 16.7 37.2 37.2 0 20.6-16.7 37.2-37.2 37.2-20.5 0-37.2-16.6-37.2-37.2m11.1-26.1C55.2 29.6 51.1 38.8 51.1 49c0 10.2 4.1 19.5 10.8 26.1C68.6 81.8 77.8 86 88 86c10.2 0 19.5-4.1 26.1-10.8 6.8-6.7 10.9-16 10.9-26.2s-4.1-19.5-10.8-26.1C107.5 16.2 98.3 12 88 12c-10.2 0-19.4 4.2-26.1 10.9M53.2 49c0-19.3 15.6-34.9 34.9-34.9v.2c-9.6 0-18.2 3.9-24.5 10.1-6.3 6.4-10.2 15-10.2 24.6 0 9.6 3.9 18.2 10.1 24.5s15 10.2 24.5 10.2c9.6 0 18.2-3.9 24.5-10.1s10.1-14.9 10.1-24.5-3.9-18.2-10.1-24.5c-6.3-6.3-14.9-10.1-24.5-10.1v-.2c19.3 0 34.9 15.6 34.9 34.9 0 19.3-15.6 34.9-34.9 34.9-19.2-.2-34.8-15.8-34.8-35.1"/><path fill="#8A8A8D" d="M115 42.3c-.7 3 1.7 4 3 1.3 4.9 2 11.5 4.2 18.8 5.3h-25.4l-1.9-9.2c0-.1 2.1 1.1 5.5 2.6"/><path fill="#55565A" d="M123.6 48.9h-12.2l-2-9.6.2.1s2 1.2 5.5 2.7v.1-.1h.1v.1c-.1.3-.1.7-.1.9 0 1.2.6 1.8 1.2 1.8.5 0 1.2-.4 1.7-1.5v-.1h.1c4.9 2 11.5 4.2 18.8 5.3v.2h-13.3zm11.8-.2c-6.7-1.1-12.7-3.2-17.3-5-.5 1.1-1.2 1.6-1.9 1.6-.8 0-1.4-.8-1.4-2 0-.3 0-.6.1-.9-2.7-1.2-4.6-2.2-5.2-2.5l1.9 8.9h23.8z"/><path fill="#D2D0CD" d="M115 55.3c-.7-3 1.7-4 3-1.3 4.9-2 11.5-4.2 18.8-5.3h-25.4l-1.9 9.2c0 .2 2.1-1 5.5-2.6"/><path fill="#55565A" d="M111.4 48.7h25.5v.2c-7.3 1.1-13.9 3.3-18.8 5.2h-.1V54c-.5-1.1-1.2-1.5-1.7-1.5-.6 0-1.2.6-1.2 1.8 0 .3 0 .6.1.9h-.1.1v.1h-.1c-3.4 1.5-5.5 2.7-5.5 2.7l-.2.1 2-9.4zm-1.7 9.1c.6-.3 2.4-1.3 5.2-2.5-.1-.3-.1-.6-.1-.9 0-1.2.6-2 1.4-2 .6 0 1.3.5 1.9 1.6 4.6-1.8 10.6-3.9 17.3-5h-23.8l-1.9 8.8z"/><path fill="#8A8A8D" d="M81.6 22c3 .7 4-1.7 1.3-3 2-4.9 4.2-11.5 5.3-18.8v25.4L79 27.5c-.1-.1 1.1-2.1 2.6-5.5"/><path fill="#55565A" d="M78.8 27.4s1.2-2 2.7-5.5v-.1h.1c.3.1.7.1.9.1 1.2 0 1.8-.6 1.8-1.2 0-.5-.4-1.2-1.5-1.7h-.1v-.1C84.7 14 86.9 7.4 88 .1h.2v25.5l-9.6 2 .2-.2zm.3-.1l8.9-1.9V1.6c-1.1 6.7-3.2 12.7-5 17.3 1.1.5 1.6 1.2 1.6 1.9 0 .8-.8 1.4-2 1.4-.3 0-.6 0-.9-.1-1.2 2.7-2.2 4.6-2.6 5.2"/><path fill="#D2D0CD" d="M94.7 22c-3 .7-4-1.7-1.3-3-2-4.9-4.2-11.5-5.3-18.8v25.4l9.2 1.9c.1-.1-1.1-2.1-2.6-5.5"/><path fill="#55565A" d="M88 25.6V.1h.2c1.1 7.3 3.3 13.9 5.3 18.8v.1h-.1c-1.1.5-1.5 1.2-1.5 1.7 0 .6.6 1.2 1.8 1.2.3 0 .6 0 .9-.1h.1v.1c1.5 3.4 2.7 5.5 2.7 5.5l.1.2-9.5-2zm9.1 1.7c-.3-.6-1.3-2.4-2.5-5.2-.3.1-.6.1-.9.1-1.2 0-2-.6-2-1.4 0-.6.5-1.3 1.6-1.9-1.8-4.6-3.9-10.6-5-17.3v23.8l8.8 1.9zM94.6 22h.1-.1z"/><path fill="#8A8A8D" d="M94.7 76c-3-.7-4 1.7-1.3 3-2 4.9-4.2 11.5-5.3 18.8V72.5l9.2-1.9c.1 0-1.1 2-2.6 5.4"/><path fill="#55565A" d="M88 97.9V72.4l9.6-2-.1.2s-1.2 2-2.7 5.5v.1h-.1c-.4-.1-.7-.2-1-.2-1.2 0-1.8.6-1.8 1.2 0 .5.4 1.2 1.5 1.7h.1v.1c-2 4.9-4.2 11.5-5.2 18.8l-.3.1zm.2-13.3v11.8c1.1-6.7 3.2-12.7 5-17.3-1.1-.5-1.6-1.2-1.6-1.9 0-.8.8-1.4 2-1.4.3 0 .6 0 .9.1 1.2-2.7 2.2-4.6 2.5-5.2l-8.9 1.9v12zm6.5-8.6v-.1.1z"/><path fill="#D2D0CD" d="M81.6 76c3-.7 4 1.7 1.3 3 2 4.9 4.2 11.5 5.3 18.8V72.5L79 70.6c-.1 0 1.1 2 2.6 5.4"/><path fill="#55565A" d="M82.8 79.1V79h.1c1.1-.5 1.5-1.2 1.5-1.7 0-.6-.6-1.2-1.8-1.2-.3 0-.6 0-.9.1h-.1v-.1c-1.5-3.4-2.7-5.5-2.7-5.5l-.1-.2 9.6 2v25.4h-.2c-1.3-7.2-3.5-13.8-5.4-18.7M88 96.4V72.6l-8.9-1.9c.3.6 1.3 2.4 2.5 5.2.3-.1.6-.1.9-.1 1.2 0 2 .6 2 1.4 0 .7-.5 1.3-1.6 1.9 2 4.6 4 10.6 5.1 17.3M81.6 76h.1-.1z"/><path fill="#8A8A8D" d="M61.1 55.5c.7-3-1.7-4-3-1.3-4.9-2-11.5-4.2-18.8-5.3h25.4l1.9 9.2c0 .1-2.1-1.1-5.5-2.6"/><path fill="#55565A" d="M66.5 58.3s-2-1.2-5.5-2.7v-.1h.1-.1v.1h-.1v-.1c.1-.3.1-.7.1-.9 0-1.2-.6-1.8-1.2-1.8-.5 0-1.2.4-1.7 1.5v.1H58c-4.9-2-11.5-4.2-18.8-5.3v-.2h25.5l2 9.6-.2-.2zm-.1-.3l-1.9-8.9H40.7c6.7 1.1 12.7 3.2 17.3 5 .5-1.1 1.2-1.6 1.9-1.6.8 0 1.4.8 1.4 2 0 .3 0 .6-.1.9 2.8 1.3 4.6 2.2 5.2 2.6"/><path fill="#D2D0CD" d="M61.1 42.4c.7 3-1.7 4-3 1.3-4.9 2-11.5 4.2-18.8 5.3h25.4l1.9-9.2c0-.1-2.1 1.1-5.5 2.6"/><path fill="#55565A" d="M64.6 49.1H39.3v-.2c7.3-1.1 13.9-3.3 18.8-5.2h.1v.1c.5 1.1 1.2 1.5 1.7 1.5.6 0 1.2-.6 1.2-1.8 0-.3 0-.6-.1-.9v-.1h.1c3.4-1.5 5.5-2.7 5.5-2.7l.2-.1-2.2 9.4zm-.1-.2l1.9-8.9c-.6.3-2.4 1.3-5.2 2.5.1.3.1.6.1.9 0 1.2-.6 2-1.4 2-.6 0-1.3-.5-1.9-1.6-4.6 1.8-10.6 3.9-17.3 5h23.8z"/><path fill="#8A8A8D" d="M64.3 34.5c2.6-1.6 1.6-4.1-1.2-3-2.1-4.9-5.2-11.1-9.6-17l17.9 17.9-5.2 7.9c.1-.1-.6-2.3-1.9-5.8"/><path fill="#55565A" d="M66.1 40.3s-.6-2.3-2-5.8h.1l.1.1-.1-.1h-.1v-.1h.1c1-.6 1.4-1.4 1.4-2 0-.6-.5-1.1-1.3-1.1-.3 0-.8.1-1.2.3H63v-.1c-2.1-4.9-5.2-11.1-9.6-17l.2-.2 17.9 17.9.1.1-5.4 8.2-.1-.2zm.2-.3l5-7.6-16.8-16.8c3.9 5.5 6.8 11.2 8.7 15.8.4-.2.9-.2 1.2-.2.5 0 .9.1 1.2.4.3.2.4.6.4.9 0 .7-.5 1.5-1.5 2.1 1 2.7 1.6 4.7 1.8 5.4"/><path fill="#D2D0CD" d="M73.5 25.2c-1.6 2.6-4.1 1.6-3-1.2-4.9-2.1-11.1-5.2-17-9.6l17.9 17.9 7.9-5.2c0 .1-2.3-.5-5.8-1.9"/><path fill="#55565A" d="M71.3 32.4L53.4 14.5l.2-.2c5.9 4.4 12.2 7.5 17 9.6h.1v.1c-.2.5-.3.9-.3 1.2 0 .9.5 1.3 1.1 1.3.6 0 1.3-.4 2-1.4l.1-.1h.1c3.5 1.3 5.8 2 5.8 2l.2.1-8.4 5.3zm.1-.2l7.6-5c-.7-.2-2.7-.8-5.5-1.9-.7 1-1.5 1.5-2.1 1.5-.4 0-.7-.1-.9-.4-.2-.3-.4-.7-.4-1.2 0-.4.1-.8.2-1.2-4.5-1.9-10.2-4.8-15.8-8.7l16.9 16.9m2.1-6.9v-.1.1z"/><path fill="#D2D0CD" d="M111.6 34.2c-2.6-1.6-1.6-4.1 1.2-3 2.1-4.9 5.2-11.1 9.6-17l-17.9 17.9 5.2 7.9c-.1 0 .5-2.3 1.9-5.8"/><path fill="#55565A" d="M104.3 32.1l18-18 .2.2c-4.4 5.9-7.5 12.2-9.6 17v.1h-.1c-.5-.2-.9-.3-1.2-.3-.9 0-1.3.5-1.3 1.1 0 .6.4 1.3 1.4 2l-.1.1.1-.1.1.1v.1c-1.3 3.5-2 5.8-2 5.8l-.1.3-5.4-8.4zm5.3 7.6c.2-.7.8-2.7 1.9-5.5-1-.7-1.5-1.5-1.5-2.1 0-.4.1-.7.4-.9.3-.2.7-.4 1.2-.4.4 0 .8.1 1.2.2 1.9-4.5 4.8-10.2 8.7-15.8l-16.2 16.2-.7.7 5 7.6z"/><path fill="#8A8A8D" d="M102.3 25c1.6 2.6 4.1 1.6 3-1.2 4.9-2.1 11.1-5.2 17-9.6l-17.9 17.9-7.9-5.1s2.3-.7 5.8-2"/><path fill="#55565A" d="M96.3 26.9l.3-.1s2.3-.6 5.8-2h.1l.1.1c.6 1 1.4 1.5 2 1.5.6 0 1.1-.5 1.1-1.3 0-.3-.1-.8-.3-1.2v-.1h.1c4.9-2.1 11.1-5.2 17-9.6l.2.2-17.2 17.2-.7.7-.1.1-8.4-5.5zm8.1 5.1l16.8-16.8c-5.5 3.9-11.2 6.8-15.8 8.7.2.4.2.9.2 1.2 0 .5-.1.9-.4 1.2-.2.3-.6.4-.9.4-.7 0-1.5-.5-2.1-1.5-2.8 1.1-4.8 1.7-5.5 1.9l7.7 4.9z"/><path fill="#D2D0CD" d="M64.3 63.5c2.6 1.6 1.6 4.1-1.2 3-2.1 4.9-5.2 11.1-9.6 17l17.9-17.9-5.2-7.9c.1 0-.6 2.3-1.9 5.8"/><path fill="#55565A" d="M53.4 83.5c4.4-5.9 7.5-12.2 9.6-17v-.1h.1c.5.2.9.3 1.2.3.9 0 1.3-.5 1.3-1.1 0-.6-.4-1.3-1.4-2l-.1-.1v-.1c1.3-3.5 2-5.8 2-5.8l.1-.3 5.4 8.2-.1.1-17.9 17.9h-.2zm1-1.1l8.3-8.3 8.5-8.5-5-7.6c-.2.7-.8 2.7-1.9 5.5 1 .7 1.5 1.5 1.5 2.1 0 .4-.1.7-.4.9-.3.2-.7.4-1.1.4-.4 0-.8-.1-1.2-.2-1.9 4.5-4.7 10.2-8.7 15.7"/><path fill="#8A8A8D" d="M73.5 72.7c-1.6-2.6-4.1-1.6-3 1.2-4.9 2.1-11.1 5.2-17 9.6l17.9-17.9 7.9 5.2s-2.3.6-5.8 1.9"/><path fill="#55565A" d="M53.4 83.5l9.4-9.4 8.6-8.6.1-.1 8.2 5.4-.2.1s-2.3.6-5.8 2h-.1l-.1-.1c-.6-1-1.4-1.4-2-1.4-.6 0-1.1.4-1.1 1.3 0 .3.1.8.3 1.2v.1h-.1c-4.9 2.1-11.1 5.2-17 9.6l-.2-.1zm1.2-.9c5.5-3.9 11.2-6.8 15.8-8.7-.2-.5-.2-.9-.2-1.2 0-.5.1-.9.4-1.2.2-.3.6-.4.9-.4.7 0 1.5.5 2.1 1.5 2.8-1.1 4.8-1.7 5.5-1.9l-7.6-5-16.9 16.9m18.9-9.9z"/><path fill="#8A8A8D" d="M111.6 63.7c-2.6 1.6-1.6 4.1 1.2 3 2.1 4.9 5.2 11.1 9.6 17l-17.9-17.9 5.2-7.9c-.1 0 .5 2.3 1.9 5.8"/><path fill="#55565A" d="M104.4 65.9l5.3-8.3.1.2s.6 2.3 2 5.8h-.1.1v.1l-.1.1c-1 .6-1.5 1.4-1.4 2 0 .6.4 1.1 1.3 1.1.3 0 .8-.1 1.2-.3h.1v.1c2.1 4.9 5.2 11.1 9.6 17l-.2.2c-1-1.1-17.9-18-17.9-18m2.8 2.5l5.9 5.9 8.3 8.3c-3.9-5.5-6.8-11.2-8.7-15.8-.4.2-.9.2-1.2.2-.5 0-.9-.1-1.2-.4-.3-.2-.4-.6-.4-.9 0-.7.5-1.5 1.5-2.1-1.1-2.8-1.7-4.8-1.9-5.5l-5 7.6c.3.4 1.3 1.4 2.7 2.7"/><path fill="#D2D0CD" d="M102.3 73c1.6-2.6 4.1-1.6 3 1.2 4.9 2.1 11.1 5.2 17 9.6l-17.9-17.9-7.9 5.1s2.3.6 5.8 2"/><path fill="#55565A" d="M105.3 74.3h-.1v-.1c.2-.5.3-.9.3-1.2 0-.9-.5-1.3-1.1-1.3-.6 0-1.3.4-2 1.4l-.1.1h-.1c-3.5-1.3-5.8-2-5.8-2l-.1-.2 8.2-5.4.1.1 2.7 2.7 5.9 5.9 9.4 9.4-.2.2c-6-4.4-12.2-7.5-17.1-9.6m16 8.5L104.5 66l-7.6 5c.7.2 2.7.8 5.5 1.9.7-1 1.5-1.5 2.1-1.5.4 0 .7.1.9.4.2.3.4.7.4 1.2 0 .4-.1.8-.2 1.2 4.4 1.8 10.1 4.7 15.7 8.6m-19-9.8v-.1.1z"/><path fill="#DBD9D6" d="M111.5 49c0 12.9-10.5 23.4-23.4 23.4-12.9 0-23.4-10.5-23.4-23.4 0-12.9 10.5-23.4 23.4-23.4 12.9 0 23.4 10.5 23.4 23.4M88 27.4c-11.9 0-21.6 9.7-21.6 21.6 0 11.9 9.7 21.6 21.6 21.6 11.9 0 21.6-9.7 21.6-21.6 0-11.9-9.6-21.6-21.6-21.6"/><path fill="#55565A" d="M64.5 49C64.5 36 75 25.5 88 25.5S111.5 36 111.5 49 101 72.5 88 72.5C75 72.6 64.5 62 64.5 49m7.1-16.5c-4.2 4.2-6.8 10-6.8 16.5 0 6.4 2.6 12.3 6.8 16.5 4.2 4.2 10 6.8 16.5 6.8 6.4 0 12.3-2.6 16.5-6.8 4.2-4.2 6.8-10 6.8-16.5 0-6.4-2.6-12.3-6.8-16.5-4.2-4.2-10-6.8-16.5-6.8s-12.3 2.6-16.5 6.8M66.4 49c0-12 9.7-21.7 21.7-21.7v.2c-5.9 0-11.3 2.4-15.2 6.3C69 37.7 66.6 43 66.6 49c0 5.9 2.4 11.3 6.3 15.2 3.9 3.9 9.2 6.3 15.2 6.3 5.9 0 11.3-2.4 15.2-6.3 3.9-3.9 6.3-9.2 6.3-15.2 0-5.9-2.4-11.3-6.3-15.2-4-3.8-9.3-6.2-15.3-6.2v-.2c12 0 21.7 9.7 21.7 21.7S100 70.8 88 70.8C76.1 70.7 66.4 61 66.4 49"/><path fill="#8A8A8D" d="M106 49c0 9.9-8.1 18-18 18s-18-8.1-18-18 8.1-18 18-18c10 0 18 8.1 18 18M88 32.7c-9 0-16.3 7.3-16.3 16.3S79 65.3 88 65.3 104.3 58 104.3 49 97 32.7 88 32.7"/><path fill="#55565A" d="M69.9 49c0-10 8.1-18.1 18.1-18.1 10 0 18.1 8.1 18.1 18.1 0 10-8.1 18.1-18.1 18.1-10 0-18.1-8.1-18.1-18.1m5.5-12.6c-3.2 3.2-5.2 7.7-5.2 12.6 0 4.9 2 9.4 5.2 12.6 3.2 3.2 7.7 5.2 12.6 5.2 4.9 0 9.4-2 12.6-5.2 3.2-3.2 5.2-7.7 5.2-12.6 0-4.9-2-9.4-5.2-12.6-3.2-3.2-7.7-5.2-12.6-5.2-4.9-.1-9.4 1.9-12.6 5.2M71.6 49c0-9.1 7.3-16.4 16.4-16.4v.2c-4.5 0-8.5 1.8-11.4 4.7-2.9 2.9-4.7 7-4.7 11.4 0 4.5 1.8 8.5 4.7 11.4 2.9 2.9 7 4.7 11.4 4.7 4.5 0 8.5-1.8 11.4-4.7 2.9-2.9 4.7-7 4.7-11.4 0-4.5-1.8-8.5-4.7-11.4-2.9-2.9-7-4.7-11.4-4.7v-.2c9.1 0 16.4 7.3 16.4 16.4 0 9.1-7.3 16.4-16.4 16.4-9 0-16.4-7.3-16.4-16.4"/><path fill="#8A8A8D" d="M136.9 49c0 27-21.9 48.9-48.9 48.9S39.2 76 39.2 49 61 .1 88 .1c27 0 48.9 21.9 48.9 48.9M88 2.1c-25.9 0-46.9 21-46.9 46.9s21 46.9 46.9 46.9 46.9-21 46.9-46.9S113.9 2.1 88 2.1"/><path fill="#55565A" d="M39 49C39 21.9 61 0 88 0c27.1 0 49 21.9 49 49s-21.9 49-49 49c-27 0-49-21.9-49-49m14.6-34.5c-8.8 8.8-14.3 21-14.3 34.5s5.5 25.7 14.3 34.5 21 14.3 34.5 14.3 25.7-5.5 34.5-14.3 14.3-21 14.3-34.5-5.5-25.7-14.3-34.5S101.6.2 88.1.2 62.4 5.7 53.6 14.5M41.1 49c0-26 21-47 47-47v.2c-13 0-24.7 5.3-33.1 13.7-8.5 8.5-13.7 20.2-13.7 33.1 0 12.9 5.2 24.6 13.7 33.1s20.2 13.7 33.1 13.7c12.9 0 24.6-5.2 33.1-13.7S134.9 62 134.9 49c0-12.9-5.2-24.6-13.7-33.1C112.6 7.5 101 2.2 88 2.2V2c25.9 0 47 21 47 47s-21 47-47 47c-25.9 0-46.9-21-46.9-47"/><path d="M29.4 59.5l13.2-29.2c.6-1.2.8-2.2.8-2.9 0-1-.8-1.7-2.4-2v-1.2h17.1v1.2c-1.1.1-1.8.5-2.2.9-.4.5-1.1 1.8-2.2 4L36.4 67.5c-.7 1.6-1.1 2.6-1.1 3.1 0 1.2.8 2 2.3 2.2V74H20.5v-1.2c1.5-.2 2.3-1 2.3-2.2 0-.5-.4-1.5-1.1-3.1L4.4 30.2c-1-2.2-1.7-3.6-2.2-4-.4-.5-1.2-.8-2.2-.9v-1.2h17.7v1.2c-1.6.3-2.4 1-2.4 2 0 .7.3 1.6.8 2.9l13.3 29.3zM148.4 23.2c8.7 0 15.6 2.3 20.7 7 5.4 4.9 8.1 11.3 8.1 19.1 0 4.8-1.3 9.2-3.9 13.4-5 8.1-13.3 12.1-24.8 12.1-8.6 0-15.5-2.3-20.6-7-2.7-2.5-4.8-5.5-6.2-9-1.2-3.1-1.9-6.3-1.9-9.7 0-5 1.3-9.6 3.8-13.7 5-8 13.2-12 24.8-12.2m0 8.5c-4.8 0-8.7 1.4-11.9 4.2-3.8 3.3-5.6 7.7-5.6 13.1 0 5.4 1.9 9.8 5.6 13.1 3.2 2.8 7.1 4.2 12 4.2 4.8 0 8.8-1.4 11.9-4.2 1.9-1.7 3.3-3.7 4.3-6.2.9-2.2 1.3-4.4 1.3-6.7 0-5.6-1.9-10.1-5.6-13.3-3.2-2.7-7.2-4.2-12-4.2M111.9 47.2c.3-.4.9-.7 1.7-.9v-1.2H91.1c-.7 0-1.3-.2-1.6-.5-.4-.3-.7-.9-.9-1.8h-1.1v11.6h1.1c.2-.9.5-1.5.9-1.8.4-.3.9-.5 1.6-.5h11.7v10.8c-5.2 3.3-12.2 4.3-14.8 4.3-6.4 0-11.9-3.3-15.2-8.2-.6-.9-1.1-1.8-1.5-2.7-.9-2.2-1.5-4.6-1.5-7.1 0-10 8.1-18.1 18.1-18.1 6.5 0 12.7 3.9 13.9 4.8.6.5 1.1.9 1.2 1.3.2.4.3.9.3 1.7l1 .5 5.6-11.9-1-.5c-.6.6-1.2.8-1.7.8-.7 0-1.8-.3-3.4-1-3.1-1.2-5.8-2.1-8.2-2.6-2.4-.5-5-.8-7.7-.8-8.5 0-15.2 2.4-20.5 6.7-4 3.3-7.2 10.9-7.2 18.9 0 8.6 3.5 16.5 8.5 20.1 5 3.6 11.1 5.7 18.8 5.7 8.5 0 17.2-2.7 26.2-8.1v-.9c-.8-.2-1.4-.6-1.7-.9-.2-.3-.4-.6-.4-1.1v-.2V48.9c-.2-.7-.1-1.3.3-1.7M27.9 84.3l1 1.6-.2.1c-.1-.1-.2-.1-.3-.1-.1 0-.2.1-.6.3-.6.4-1.2.6-1.6.7-.4.1-.9.2-1.5.2-1.2 0-2.1-.3-2.9-.8-.4-.3-.8-.7-1-1.2-.3-.5-.4-1.2-.4-1.8 0-.9.3-1.7.8-2.4.8-1 2-1.5 3.6-1.5.6 0 1.1.1 1.5.2.4.1 1 .4 1.6.7.3.2.5.3.6.3.1 0 .1 0 .3-.1l.1.1-1 1.6-.1-.1V82c0-.1 0-.2-.1-.3-.1-.1-.3-.2-.5-.3-.6-.4-1.3-.5-2-.5-.9 0-1.5.2-2 .6-.6.5-.9 1.1-.9 2 0 .8.3 1.5.9 2 .5.4 1.2.6 2 .6.7 0 1.4-.2 2-.5.2-.1.4-.2.5-.3.1-.1.1-.2.1-.3v-.1l.1-.6zM34.5 85.3h-2.8l-.3.7c-.1.2-.1.3-.1.4 0 .2.1.3.3.3v.2h-2.2v-.2c.1 0 .2-.1.3-.1.1-.1.1-.2.2-.4l2.2-4.5c.1-.2.1-.3.1-.4 0-.1-.1-.3-.3-.3v-.2h2.4v.2c-.2 0-.3.1-.3.3 0 .1 0 .3.1.4l2.3 4.4c.1.2.2.4.3.5.1.1.2.1.3.1v.2h-2.5v-.2c.2 0 .4-.2.4-.3 0-.1 0-.3-.1-.4l-.3-.7zm-.4-.8l-1-2-1 2h2zM39.4 84.4v1.9c0 .1 0 .2.1.3.1.1.1.1.3.2v.2h-2.2v-.2c.1 0 .2-.1.3-.1.1-.1.1-.1.1-.3v-5c0-.1 0-.2-.1-.3-.1-.1-.1-.1-.3-.1v-.2h4c.8 0 1.4.1 1.8.4.2.1.4.3.5.6.1.3.2.5.2.9 0 .6-.2 1.1-.6 1.4-.4.3-1 .4-1.9.4h-2.2zm0-1.2h2.1c.4 0 .6 0 .8-.1.2-.1.3-.3.3-.6s-.1-.5-.3-.6c-.1-.1-.4-.1-.8-.1h-2.1v1.4zM46.7 81.3v5c0 .1 0 .2.1.3.1.1.1.1.3.2v.2h-2.2v-.2c.1 0 .2-.1.3-.1.1-.1.1-.1.1-.3v-5c0-.1 0-.2-.1-.3-.1-.1-.1-.1-.3-.1v-.2h2.2v.2c-.1 0-.2.1-.3.1 0 0-.1.1-.1.2M51.5 81.9v4.4c0 .1 0 .2.1.3.1.1.1.1.3.2v.2h-2.2v-.2c.1 0 .2-.1.3-.1.1-.1.1-.1.1-.3V82h-1.8c-.1 0-.2 0-.3.1-.1.1-.1.1-.1.3h-.1v-1.8h.1c0 .1.1.2.1.3.1.1.1.1.3.1h5.1c.1 0 .2 0 .3-.1.1-.1.1-.1.1-.3h.1v1.8h-.1c0-.1-.1-.2-.1-.3-.1-.1-.1-.1-.3-.1h-1.9zM58.5 85.3h-2.8l-.4.7c-.1.2-.1.3-.1.4 0 .2.1.3.3.3v.2h-2.2v-.2c.1 0 .2-.1.3-.1.1-.1.1-.2.2-.4l2.2-4.5c.1-.2.1-.3.1-.4 0-.1-.1-.3-.3-.3v-.2h2.4v.2c-.1 0-.2.1-.2.3 0 .1 0 .3.1.4l2.3 4.4c.1.2.2.4.3.5.1.1.2.1.3.1v.2h-2.5v-.2c.2 0 .4-.2.4-.3 0-.1 0-.3-.1-.4l-.3-.7zm-.5-.8l-1-2-1 2h2zM63.4 85.8h3.4c.1 0 .2 0 .3-.1.1 0 .1-.1.1-.3h.1v1.8h-.1c0-.1-.1-.2-.1-.3-.1-.1-.1-.1-.3-.1h-5.2v-.2c.1 0 .2-.1.3-.1.1-.1.1-.1.1-.3v-5c0-.1 0-.2-.1-.3-.1-.1-.1-.1-.3-.1v-.2h2.2v.2c-.1 0-.2.1-.3.1-.1.1-.1.1-.1.3v4.6zM72.9 83.8v2.5c0 .1 0 .2.1.3.1.1.1.1.3.1v.2H71v-.2c.1 0 .2-.1.3-.1.1-.1.1-.1.1-.2V80c0-.1 0-.2-.1-.3s-.1-.1-.3-.1v-.2h4.7c.5 0 1 0 1.3.1.3.1.6.2.8.4.2.2.4.4.6.7.1.3.2.6.2 1 0 .5-.1.9-.4 1.3-.2.3-.5.6-.9.7-.4.1-.9.2-1.6.2h-2.8zm0-1.2h2.5c.5 0 .8-.1 1-.2l.3-.3c.1-.1.1-.3.1-.5s0-.3-.1-.5-.2-.3-.3-.3c-.2-.1-.5-.2-1-.2h-2.5v2zM83.2 85.3h-2.8l-.3.7c-.1.2-.1.3-.1.4 0 .2.1.3.3.3v.2h-2.2v-.2c.1 0 .2-.1.3-.1.1-.1.1-.2.2-.4l2.2-4.5c.1-.2.1-.3.1-.4 0-.1-.1-.3-.3-.3v-.2H83v.2c-.2.1-.3.2-.3.4 0 .1 0 .3.1.4l2.3 4.4c.1.2.2.4.3.5.1.1.2.1.3.1v.2h-2.5v-.2c.2 0 .4-.2.4-.3 0-.1 0-.3-.1-.4l-.3-.8zm-.4-.8l-1-2-1 2h2zM88.1 84.4v1.9c0 .1 0 .2.1.3.1.1.1.1.3.2v.2h-2.2v-.2c.1 0 .2-.1.3-.1s.1-.1.1-.3v-5c0-.1 0-.2-.1-.3-.1-.1-.1-.1-.3-.1v-.2h4c.5 0 .9 0 1.2.1.3.1.5.1.7.3.4.3.7.8.7 1.4 0 .5-.1.9-.4 1.2-.3.3-.7.5-1.3.6l1.2 1.6c.2.3.4.5.5.6.1.1.3.2.4.2v.2h-2.6v-.2c.2-.1.3-.1.3-.2s-.1-.2-.2-.4l-1.2-1.7h-1.5zm0-1.2h2.2c.3 0 .6 0 .7-.1.2-.1.3-.3.3-.6s-.1-.4-.2-.5c-.2-.1-.4-.2-.8-.2h-2.2v1.4zM97.4 81.9v4.4c0 .1 0 .2.1.3.1.1.1.1.3.2v.2h-2.2v-.2c.1 0 .2-.1.3-.1.1-.1.1-.1.1-.3V82h-1.8c-.1 0-.2 0-.3.1-.1.1-.1.1-.1.3h-.1v-1.8h.1c0 .1.1.2.1.3.1.1.1.1.3.1h5.1c.1 0 .2 0 .3-.1.1-.1.1-.1.1-.3h.1v1.8h-.1c0-.1-.1-.2-.1-.3-.1-.1-.1-.1-.3-.1h-1.9zM102.1 82.8v3.5c0 .1 0 .2.1.3.1.1.1.1.3.1v.2h-2v-.2c.1 0 .2-.1.3-.1.1-.1.1-.1.1-.3v-5c0-.1 0-.2-.1-.3-.1-.1-.1-.1-.3-.1v-.2h2.3v.2c-.2 0-.2.1-.2.2s.1.2.2.3l3.3 3.3v-3.4c0-.1 0-.2-.1-.3-.1-.1-.1-.1-.3-.1v-.2h2v.2c-.1 0-.2.1-.3.1-.1.1-.1.1-.1.3v5c0 .1 0 .2.1.3 0 .1.1.1.3.2v.2h-2.2v-.2c.2 0 .2-.1.2-.2 0 0 0-.1-.1-.2s-.1-.2-.3-.3l-3.2-3.3zM110.5 84.3v1.5h3.9c.1 0 .2 0 .3-.1.1-.1.1-.1.1-.3h.2v1.8h-.2c0-.1-.1-.2-.1-.3-.1-.1-.1-.1-.3-.1h-5.7v-.2c.1 0 .2-.1.3-.1.1-.1.1-.1.1-.3v-5c0-.1 0-.2-.1-.3-.1-.1-.1-.1-.3-.1v-.2h5.5c.1 0 .2 0 .3-.1.1-.1.1-.1.1-.3h.1V82h-.1c0-.1-.1-.2-.1-.3-.1-.1-.1-.1-.3-.1h-3.7v1.3h2.3c.1 0 .2 0 .3-.1.1-.1.1-.1.1-.3h.1v1.8h-.1c0-.1-.1-.2-.1-.3-.1-.1-.1-.1-.3-.1h-2.3zM117.7 84.4v1.9c0 .1 0 .2.1.3.1.1.1.1.3.2v.2h-2.2v-.2c.1 0 .2-.1.3-.1s.1-.1.1-.3v-5c0-.1 0-.2-.1-.3-.1-.1-.1-.1-.3-.1v-.2h4c.5 0 .9 0 1.2.1.3.1.5.1.7.3.4.3.7.8.7 1.4 0 .5-.1.9-.4 1.2-.3.3-.7.5-1.3.6L122 86c.2.3.4.5.5.6.1.1.3.2.4.2v.2h-2.6v-.2c.2-.1.3-.1.3-.2s-.1-.2-.2-.4l-1.2-1.7h-1.5zm0-1.2h2.2c.3 0 .6 0 .7-.1.2-.1.3-.3.3-.6s-.1-.4-.2-.5c-.2-.1-.4-.2-.8-.2h-2.2v1.4zM129.3 81.3l-.7 1.4-.1-.1c0-.1 0-.2-.1-.3-.2-.2-.5-.3-.9-.5-.4-.1-.8-.2-1.2-.2-.4 0-.7 0-.9.1-.4.1-.6.3-.6.6 0 .2.1.3.3.4.2.1.6.1 1.1.2l.9.1c.8.1 1.3.2 1.7.4.2.1.4.3.5.5.2.3.3.6.3.9 0 .6-.3 1.1-.8 1.5-.5.3-1.3.5-2.2.5-.9 0-1.8-.2-2.7-.6h-.1c-.1 0-.1 0-.2.1l-.1-.1.6-1.5.1.1c0 .1 0 .2.1.2.2.2.5.3.9.4.4.1.9.2 1.3.2s.7 0 1-.2c.4-.1.6-.3.6-.6 0-.2-.1-.4-.4-.5-.2-.1-.5-.1-.9-.1l-.9-.1c-.5 0-.8-.1-1.1-.1-.2-.1-.5-.1-.6-.3-.2-.1-.4-.3-.5-.6-.1-.3-.2-.5-.2-.8 0-.7.3-1.2.9-1.5.5-.3 1.2-.5 1.9-.5.4 0 .8 0 1.2.1.4.1.8.3 1.3.5.1.1.3.1.3.1.1 0 .1 0 .2-.1v.4zM135.3 85.6h4.6c.1 0 .2 0 .3-.1.1-.1.1-.1.1-.3h.2v1.9h-.2c0-.1-.1-.2-.1-.3-.1-.1-.1-.1-.3-.1h-6.6v-.2c.1 0 .2-.1.3-.1.1-.1.1-.1.1-.3V80c0-.1 0-.2-.1-.3-.1-.1-.1-.1-.3-.1v-.2h2.3v.2c-.1 0-.2.1-.3.1-.1.1-.1.1-.1.3v5.6zM143.2 85.6h4.6c.1 0 .2 0 .3-.1.1-.1.1-.1.1-.3h.2v1.9h-.2c0-.1-.1-.2-.1-.3-.1-.1-.1-.1-.3-.1h-6.6v-.2c.1 0 .2-.1.3-.1.1-.1.1-.1.1-.3V80c0-.1 0-.2-.1-.3-.1-.1-.1-.1-.3-.1v-.2h2.3v.2c-.1 0-.2.1-.3.1-.1.1-.1.1-.1.3v5.6zM151.1 83.8v2.5c0 .1 0 .2.1.3.1.1.1.1.3.1v.2h-2.3v-.2c.1 0 .2-.1.3-.1.1-.1.1-.1.1-.2V80c0-.1 0-.2-.1-.3-.1-.1-.1-.1-.3-.1v-.2h4.7c.5 0 1 0 1.3.1.3.1.6.2.8.4.3.2.4.4.6.7.1.3.2.6.2 1 0 .5-.1.9-.4 1.3-.2.3-.5.6-.9.7-.4.1-.9.2-1.6.2h-2.8zm0-1.2h2.5c.5 0 .8-.1 1-.2l.3-.3c.1-.1.1-.3.1-.5s0-.3-.1-.5-.2-.3-.3-.3c-.2-.1-.5-.2-1-.2h-2.5v2z"/></svg>